<svg width="16" height="16" viewBox="0 0 16 16" fill="none" xmlns="http://www.w3.org/2000/svg">
<g clip-path="url(#clip0_178_7386)">
<path d="M14.5341 6.66373C14.8385 8.15793 14.6215 9.71135 13.9193 11.0649C13.2171 12.4185 12.072 13.4904 10.6751 14.1019C9.27816 14.7135 7.71382 14.8276 6.24293 14.4253C4.77205 14.023 3.48353 13.1287 2.59225 11.8913C1.70097 10.654 1.26081 9.14856 1.34518 7.62599C1.42954 6.10342 2.03332 4.65579 3.05583 3.52451C4.07835 2.39323 5.45779 1.64668 6.96411 1.40937C8.47043 1.17205 10.0126 1.4583 11.3334 2.2204" stroke="white" stroke-width="1.33333" stroke-linecap="round" stroke-linejoin="round"/>
<path d="M6 7.33073L8 9.33073L14.6667 2.66406" stroke="white" stroke-width="1.33333" stroke-linecap="round" stroke-linejoin="round"/>
</g>
<defs>
<clipPath id="clip0_178_7386">
<rect width="16" height="16" fill="white"/>
</clipPath>
</defs>
</svg>
