<svg width="48" height="48" viewBox="0 0 48 48" fill="none" xmlns="http://www.w3.org/2000/svg">
<path d="M0 10C0 4.47715 4.47715 0 10 0H38C43.5229 0 48 4.47715 48 10V38C48 43.5229 43.5228 48 38 48H10C4.47715 48 0 43.5228 0 38V10Z" fill="#2C3E50" fill-opacity="0.1"/>
<path d="M18.9956 14V17.9974" stroke="#2C3E50" stroke-width="1.9987" stroke-linecap="round" stroke-linejoin="round"/>
<path d="M28.9897 14V17.9974" stroke="#2C3E50" stroke-width="1.9987" stroke-linecap="round" stroke-linejoin="round"/>
<path d="M13.9987 21.9922H33.9857" stroke="#2C3E50" stroke-width="1.9987" stroke-linecap="round" stroke-linejoin="round"/>
<path d="M14.9978 16H32.9866C33.5384 16 33.9857 16.4473 33.9857 16.9991V32.9892C33.9857 33.541 33.5384 33.9883 32.9866 33.9883H14.9978C14.446 33.9883 13.9987 33.541 13.9987 32.9892V16.9991C13.9987 16.4473 14.446 16 14.9978 16Z" stroke="#2C3E50" stroke-width="1.9987" stroke-linecap="round" stroke-linejoin="round"/>
</svg>
