<svg width="20" height="20" viewBox="0 0 20 20" fill="none" xmlns="http://www.w3.org/2000/svg">
<path d="M17.8498 9.09936C17.999 9.03355 18.1256 8.92542 18.2139 8.78836C18.3023 8.65131 18.3485 8.49135 18.3468 8.32831C18.3451 8.16526 18.2956 8.0063 18.2045 7.8711C18.1133 7.7359 17.9845 7.63041 17.834 7.56769L10.6915 4.31436C10.4744 4.21532 10.2385 4.16406 9.99983 4.16406C9.76117 4.16406 9.5253 4.21532 9.30816 4.31436L2.1665 7.56436C2.01814 7.62934 1.89193 7.73614 1.8033 7.87171C1.71468 8.00727 1.66748 8.16573 1.66748 8.32769C1.66748 8.48966 1.71468 8.64811 1.8033 8.78368C1.89193 8.91925 2.01814 9.02605 2.1665 9.09103L9.30816 12.3477C9.5253 12.4467 9.76117 12.498 9.99983 12.498C10.2385 12.498 10.4744 12.4467 10.6915 12.3477L17.8498 9.09936Z" stroke="white" stroke-width="1.66667" stroke-linecap="round" stroke-linejoin="round"/>
<path d="M18.3335 8.33594V13.3359" stroke="white" stroke-width="1.66667" stroke-linecap="round" stroke-linejoin="round"/>
<path d="M5 10.4141V13.3307C5 13.9938 5.52678 14.6297 6.46447 15.0985C7.40215 15.5673 8.67392 15.8307 10 15.8307C11.3261 15.8307 12.5979 15.5673 13.5355 15.0985C14.4732 14.6297 15 13.9938 15 13.3307V10.4141" stroke="white" stroke-width="1.66667" stroke-linecap="round" stroke-linejoin="round"/>
</svg>
