<svg width="16" height="16" viewBox="0 0 16 16" fill="none" xmlns="http://www.w3.org/2000/svg">
<g clip-path="url(#clip0_153_5085)">
<path d="M11.333 1.33594H4.66634C2.82539 1.33594 1.33301 2.82832 1.33301 4.66927V11.3359C1.33301 13.1769 2.82539 14.6693 4.66634 14.6693H11.333C13.174 14.6693 14.6663 13.1769 14.6663 11.3359V4.66927C14.6663 2.82832 13.174 1.33594 11.333 1.33594Z" stroke="#67798D" stroke-width="1.33333" stroke-linecap="round" stroke-linejoin="round"/>
<path d="M10.6668 7.5802C10.7491 8.13503 10.6543 8.70168 10.396 9.19954C10.1376 9.69741 9.72889 10.1011 9.22788 10.3533C8.72687 10.6055 8.1591 10.6933 7.60532 10.6042C7.05155 10.515 6.53997 10.2536 6.14336 9.85698C5.74674 9.46036 5.48528 8.94878 5.39618 8.39501C5.30707 7.84124 5.39484 7.27346 5.64701 6.77245C5.89919 6.27144 6.30292 5.86269 6.80079 5.60436C7.29865 5.34603 7.8653 5.25126 8.42013 5.33353C8.98608 5.41746 9.51003 5.68118 9.91459 6.08574C10.3192 6.4903 10.5829 7.01425 10.6668 7.5802Z" stroke="#67798D" stroke-width="1.33333" stroke-linecap="round" stroke-linejoin="round"/>
<path d="M11.667 4.33594H11.6737" stroke="#67798D" stroke-width="1.33333" stroke-linecap="round" stroke-linejoin="round"/>
</g>
<defs>
<clipPath id="clip0_153_5085">
<rect width="16" height="16" fill="white"/>
</clipPath>
</defs>
</svg>
