<svg width="16" height="16" viewBox="0 0 16 16" fill="none" xmlns="http://www.w3.org/2000/svg">
<g clip-path="url(#clip0_153_5062)">
<path d="M13.3337 6.66927C13.3337 9.99794 9.64099 13.4646 8.40099 14.5353C8.28548 14.6221 8.14486 14.6691 8.00033 14.6691C7.85579 14.6691 7.71518 14.6221 7.59966 14.5353C6.35966 13.4646 2.66699 9.99794 2.66699 6.66927C2.66699 5.25478 3.2289 3.89823 4.22909 2.89803C5.22928 1.89784 6.58584 1.33594 8.00033 1.33594C9.41481 1.33594 10.7714 1.89784 11.7716 2.89803C12.7718 3.89823 13.3337 5.25478 13.3337 6.66927Z" stroke="#67798D" stroke-width="1.33333" stroke-linecap="round" stroke-linejoin="round"/>
<path d="M8 8.66406C9.10457 8.66406 10 7.76863 10 6.66406C10 5.55949 9.10457 4.66406 8 4.66406C6.89543 4.66406 6 5.55949 6 6.66406C6 7.76863 6.89543 8.66406 8 8.66406Z" stroke="#67798D" stroke-width="1.33333" stroke-linecap="round" stroke-linejoin="round"/>
</g>
<defs>
<clipPath id="clip0_153_5062">
<rect width="16" height="16" fill="white"/>
</clipPath>
</defs>
</svg>
