<svg width="17" height="17" viewBox="0 0 17 17" fill="none" xmlns="http://www.w3.org/2000/svg">
<path d="M5.8335 0.835938H1.66683C1.2066 0.835938 0.833496 1.20904 0.833496 1.66927V7.50261C0.833496 7.96284 1.2066 8.33594 1.66683 8.33594H5.8335C6.29374 8.33594 6.66683 7.96284 6.66683 7.50261V1.66927C6.66683 1.20904 6.29374 0.835938 5.8335 0.835938Z" stroke="white" stroke-width="1.66654" stroke-linecap="round" stroke-linejoin="round"/>
<path d="M14.9993 0.835938H10.8326C10.3724 0.835938 9.99927 1.20904 9.99927 1.66927V4.16927C9.99927 4.62951 10.3724 5.00261 10.8326 5.00261H14.9993C15.4595 5.00261 15.8326 4.62951 15.8326 4.16927V1.66927C15.8326 1.20904 15.4595 0.835938 14.9993 0.835938Z" stroke="white" stroke-width="1.66654" stroke-linecap="round" stroke-linejoin="round"/>
<path d="M14.9993 8.33594H10.8326C10.3724 8.33594 9.99927 8.70904 9.99927 9.16924V15.0026C9.99927 15.4628 10.3724 15.8359 10.8326 15.8359H14.9993C15.4595 15.8359 15.8326 15.4628 15.8326 15.0026V9.16924C15.8326 8.70904 15.4595 8.33594 14.9993 8.33594Z" stroke="white" stroke-width="1.66654" stroke-linecap="round" stroke-linejoin="round"/>
<path d="M5.83325 11.6719H1.66658C1.20635 11.6719 0.833252 12.045 0.833252 12.5053V15.0053C0.833252 15.4655 1.20635 15.8386 1.66658 15.8386H5.83325C6.29349 15.8386 6.66658 15.4655 6.66658 15.0053V12.5053C6.66658 12.045 6.29349 11.6719 5.83325 11.6719Z" stroke="white" stroke-width="1.66654" stroke-linecap="round" stroke-linejoin="round"/>
</svg>
