<svg width="48" height="48" viewBox="0 0 48 48" fill="none" xmlns="http://www.w3.org/2000/svg">
<path d="M0 9.99999C0 4.47714 4.47715 0 10 0H38C43.5228 0 48 4.47715 48 10V38C48 43.5228 43.5228 48 38 48H9.99999C4.47714 48 0 43.5228 0 38V9.99999Z" fill="#2C3E50" fill-opacity="0.1"/>
<path d="M27.9931 32.9985V30.999C27.9931 29.9384 27.5718 28.9212 26.8219 28.1713C26.0719 27.4213 25.0547 27 23.9941 27H17.9956C16.935 27 15.9178 27.4213 15.1679 28.1713C14.4179 28.9212 13.9966 29.9384 13.9966 30.999V32.9985" stroke="#2C3E50" stroke-width="1.99951" stroke-linecap="round" stroke-linejoin="round"/>
<path d="M20.9949 22.998C23.2035 22.998 24.9939 21.2076 24.9939 18.999C24.9939 16.7904 23.2035 15 20.9949 15C18.7863 15 16.9958 16.7904 16.9958 18.999C16.9958 21.2076 18.7863 22.998 20.9949 22.998Z" stroke="#2C3E50" stroke-width="1.99951" stroke-linecap="round" stroke-linejoin="round"/>
<path d="M33.9916 32.9936V30.994C33.991 30.108 33.6961 29.2472 33.1532 28.547C32.6103 27.8467 31.8503 27.3465 30.9924 27.125" stroke="#2C3E50" stroke-width="1.99951" stroke-linecap="round" stroke-linejoin="round"/>
<path d="M27.9932 15.1328C28.8534 15.3531 29.6158 15.8533 30.1603 16.5548C30.7047 17.2562 31.0003 18.1189 31.0003 19.0069C31.0003 19.8948 30.7047 20.7575 30.1603 21.4589C29.6158 22.1604 28.8534 22.6607 27.9932 22.8809" stroke="#2C3E50" stroke-width="1.99951" stroke-linecap="round" stroke-linejoin="round"/>
</svg>
