<svg width="19" height="17" viewBox="0 0 19 17" fill="none" xmlns="http://www.w3.org/2000/svg">
<path d="M1.66652 13.3349C1.44552 13.3349 1.23357 13.2472 1.0773 13.0909C0.921035 12.9346 0.833252 12.7227 0.833252 12.5017V1.6692C0.833252 1.44821 0.921035 1.23627 1.0773 1.08C1.23357 0.923731 1.44552 0.835938 1.66652 0.835938H5.83285C6.71683 0.835938 7.56462 1.1871 8.18969 1.81217C8.81476 2.43724 9.16592 3.28502 9.16592 4.169C9.16592 3.28502 9.51709 2.43724 10.1421 1.81217C10.7672 1.1871 11.615 0.835938 12.499 0.835938H16.6653C16.8863 0.835938 17.0983 0.923731 17.2546 1.08C17.4108 1.23627 17.4986 1.44821 17.4986 1.6692V12.5017C17.4986 12.7227 17.4108 12.9346 17.2546 13.0909C17.0983 13.2472 16.8863 13.3349 16.6653 13.3349H11.6657C11.0028 13.3349 10.3669 13.5983 9.89806 14.0671C9.4293 14.5359 9.16592 15.1718 9.16592 15.8347C9.16592 15.1718 8.90255 14.5359 8.43375 14.0671C7.96494 13.5983 7.3291 13.3349 6.66612 13.3349H1.66652Z" stroke="#364153" stroke-width="1.66654" stroke-linecap="round" stroke-linejoin="round"/>
</svg>
