<svg width="19" height="14" viewBox="0 0 19 14" fill="none" xmlns="http://www.w3.org/2000/svg">
<path d="M17.0143 5.77084C17.1635 5.70503 17.2901 5.59691 17.3784 5.45987C17.4667 5.32283 17.5129 5.16288 17.5112 4.99985C17.5096 4.83682 17.4601 4.67786 17.3689 4.54267C17.2778 4.40748 17.149 4.302 16.9985 4.2393L9.85658 0.986226C9.6394 0.887183 9.40362 0.835938 9.16494 0.835938C8.9263 0.835938 8.69045 0.887183 8.47332 0.986226L1.33223 4.23597C1.18388 4.30093 1.05768 4.40773 0.969061 4.54328C0.880448 4.67884 0.833252 4.83728 0.833252 4.99924C0.833252 5.16119 0.880448 5.31963 0.969061 5.45519C1.05768 5.59074 1.18388 5.69754 1.33223 5.76251L8.47332 9.01892C8.69045 9.11791 8.9263 9.1692 9.16494 9.1692C9.40362 9.1692 9.6394 9.11791 9.85658 9.01892L17.0143 5.77084Z" stroke="#364153" stroke-width="1.66654" stroke-linecap="round" stroke-linejoin="round"/>
<path d="M17.4976 5V9.99997" stroke="#364153" stroke-width="1.66654" stroke-linecap="round" stroke-linejoin="round"/>
<path d="M4.16528 7.08594V10.0025C4.16528 10.6656 4.69206 11.3015 5.62975 11.7703C6.56743 12.2391 7.8392 12.5025 9.16528 12.5025C10.4914 12.5025 11.7632 12.2391 12.7008 11.7703C13.6385 11.3015 14.1653 10.6656 14.1653 10.0025V7.08594" stroke="#364153" stroke-width="1.66654" stroke-linecap="round" stroke-linejoin="round"/>
</svg>
