<svg width="19" height="17" viewBox="0 0 19 17" fill="none" xmlns="http://www.w3.org/2000/svg">
<path d="M1.66732 13.3359C1.4463 13.3359 1.23434 13.2481 1.07806 13.0919C0.921782 12.9356 0.833984 12.7236 0.833984 12.5026V1.66927C0.833984 1.44826 0.921782 1.2363 1.07806 1.08002C1.23434 0.923735 1.4463 0.835938 1.66732 0.835938H5.83398C6.71804 0.835938 7.56589 1.18713 8.19101 1.81225C8.81613 2.43737 9.16732 3.28522 9.16732 4.16927C9.16732 3.28522 9.51851 2.43737 10.1436 1.81225C10.7687 1.18713 11.6166 0.835938 12.5007 0.835938H16.6673C16.8883 0.835938 17.1003 0.923735 17.2566 1.08002C17.4129 1.2363 17.5007 1.44826 17.5007 1.66927V12.5026C17.5007 12.7236 17.4129 12.9356 17.2566 13.0919C17.1003 13.2481 16.8883 13.3359 16.6673 13.3359H11.6673C11.0043 13.3359 10.3684 13.5993 9.89955 14.0682C9.43071 14.537 9.16732 15.1729 9.16732 15.8359C9.16732 15.1729 8.90393 14.537 8.43508 14.0682C7.96624 13.5993 7.33036 13.3359 6.66732 13.3359H1.66732Z" stroke="white" stroke-width="1.66667" stroke-linecap="round" stroke-linejoin="round"/>
</svg>
