<svg width="48" height="48" viewBox="0 0 48 48" fill="none" xmlns="http://www.w3.org/2000/svg">
<path d="M0 9.99999C0 4.47714 4.47715 0 10 0H38C43.5228 0 48 4.47715 48 10V38C48 43.5228 43.5228 48 38 48H9.99999C4.47714 48 0 43.5228 0 38V9.99999Z" fill="#2C3E50" fill-opacity="0.1"/>
<path d="M17.9955 33.9951V15.9995C17.9955 15.4692 18.2061 14.9606 18.5811 14.5856C18.9561 14.2107 19.4647 14 19.995 14H27.993C28.5233 14 29.0319 14.2107 29.4069 14.5856C29.7819 14.9606 29.9925 15.4692 29.9925 15.9995V33.9951H17.9955Z" stroke="#2C3E50" stroke-width="1.99951" stroke-linecap="round" stroke-linejoin="round"/>
<path d="M17.9955 24H15.996C15.4657 24 14.9571 24.2107 14.5821 24.5856C14.2071 24.9606 13.9965 25.4692 13.9965 25.9995V31.998C13.9965 32.5283 14.2071 33.0369 14.5821 33.4119C14.9571 33.7869 15.4657 33.9975 15.996 33.9975H17.9955" stroke="#2C3E50" stroke-width="1.99951" stroke-linecap="round" stroke-linejoin="round"/>
<path d="M29.9926 21H31.9921C32.5224 21 33.0309 21.2107 33.4059 21.5856C33.7809 21.9606 33.9916 22.4692 33.9916 22.9995V31.9973C33.9916 32.5276 33.7809 33.0362 33.4059 33.4112C33.0309 33.7861 32.5224 33.9968 31.9921 33.9968H29.9926" stroke="#2C3E50" stroke-width="1.99951" stroke-linecap="round" stroke-linejoin="round"/>
<path d="M21.9945 18H25.9945" stroke="#2C3E50" stroke-width="1.99951" stroke-linecap="round" stroke-linejoin="round"/>
<path d="M21.9945 22H25.9945" stroke="#2C3E50" stroke-width="1.99951" stroke-linecap="round" stroke-linejoin="round"/>
<path d="M21.9945 26H25.9945" stroke="#2C3E50" stroke-width="1.99951" stroke-linecap="round" stroke-linejoin="round"/>
<path d="M21.9945 29.9922H25.9945" stroke="#2C3E50" stroke-width="1.99951" stroke-linecap="round" stroke-linejoin="round"/>
</svg>
