<svg width="19" height="19" viewBox="0 0 19 19" fill="none" xmlns="http://www.w3.org/2000/svg">
<path d="M4.16626 17.5012V2.50246C4.16626 2.06048 4.34184 1.63658 4.65438 1.32405C4.96692 1.01151 5.3908 0.835938 5.8328 0.835938H12.4989C12.941 0.835938 13.3648 1.01151 13.6773 1.32405C13.9899 1.63658 14.1655 2.06048 14.1655 2.50246V17.5012H4.16626Z" stroke="#364153" stroke-width="1.66654" stroke-linecap="round" stroke-linejoin="round"/>
<path d="M4.16658 9.17188H2.49991C2.05789 9.17188 1.63396 9.34748 1.3214 9.66008C1.00884 9.97258 0.833252 10.3965 0.833252 10.8386V15.8386C0.833252 16.2806 1.00884 16.7045 1.3214 17.0171C1.63396 17.3296 2.05789 17.5052 2.49991 17.5052H4.16658" stroke="#364153" stroke-width="1.66654" stroke-linecap="round" stroke-linejoin="round"/>
<path d="M14.1655 6.67188H15.8322C16.2742 6.67188 16.6981 6.84748 17.0107 7.16004C17.3232 7.4726 17.4988 7.89651 17.4988 8.33854V15.8386C17.4988 16.2806 17.3232 16.7045 17.0107 17.0171C16.6981 17.3296 16.2742 17.5052 15.8322 17.5052H14.1655" stroke="#364153" stroke-width="1.66654" stroke-linecap="round" stroke-linejoin="round"/>
<path d="M7.49927 4.17188H10.8326" stroke="#364153" stroke-width="1.66654" stroke-linecap="round" stroke-linejoin="round"/>
<path d="M7.49927 7.5H10.8326" stroke="#364153" stroke-width="1.66654" stroke-linecap="round" stroke-linejoin="round"/>
<path d="M7.49927 10.8359H10.8326" stroke="#364153" stroke-width="1.66654" stroke-linecap="round" stroke-linejoin="round"/>
<path d="M7.49927 14.1719H10.8326" stroke="#364153" stroke-width="1.66654" stroke-linecap="round" stroke-linejoin="round"/>
</svg>
