<svg width="16" height="16" viewBox="0 0 16 16" fill="none" xmlns="http://www.w3.org/2000/svg">
<g clip-path="url(#clip0_66_7409)">
<path d="M1.37467 8.23299C1.31912 8.08335 1.31912 7.91874 1.37467 7.7691C1.91567 6.45733 2.83399 5.33573 4.0132 4.54649C5.19241 3.75726 6.57942 3.33594 7.99837 3.33594C9.41733 3.33594 10.8043 3.75726 11.9835 4.54649C13.1628 5.33573 14.0811 6.45733 14.6221 7.7691C14.6776 7.91874 14.6776 8.08335 14.6221 8.23299C14.0811 9.54476 13.1628 10.6664 11.9835 11.4556C10.8043 12.2448 9.41733 12.6662 7.99837 12.6662C6.57942 12.6662 5.19241 12.2448 4.0132 11.4556C2.83399 10.6664 1.91567 9.54476 1.37467 8.23299Z" stroke="#2C3E50" stroke-width="1.33301" stroke-linecap="round" stroke-linejoin="round"/>
<path d="M7.99755 9.99902C9.10185 9.99902 9.99706 9.10381 9.99706 7.99951C9.99706 6.89521 9.10185 6 7.99755 6C6.89326 6 5.99805 6.89521 5.99805 7.99951C5.99805 9.10381 6.89326 9.99902 7.99755 9.99902Z" stroke="#2C3E50" stroke-width="1.33301" stroke-linecap="round" stroke-linejoin="round"/>
</g>
<defs>
<clipPath id="clip0_66_7409">
<rect width="15.9961" height="15.9961" fill="white"/>
</clipPath>
</defs>
</svg>
