<svg width="16" height="16" viewBox="0 0 16 16" fill="none" xmlns="http://www.w3.org/2000/svg">
<path d="M9.99359 13.9904V8.66039C9.99359 8.48369 9.9234 8.31423 9.79845 8.18928C9.67351 8.06433 9.50404 7.99414 9.32734 7.99414H6.66234C6.48564 7.99414 6.31618 8.06433 6.19123 8.18928C6.06629 8.31423 5.99609 8.48369 5.99609 8.66039V13.9904" stroke="#67798D" stroke-width="1.66667" stroke-linecap="round" stroke-linejoin="round"/>
<path d="M2 6.66168C1.99995 6.46785 2.0422 6.27634 2.12378 6.10051C2.20537 5.92469 2.32433 5.76877 2.47237 5.64365L7.13612 1.64682C7.37663 1.44355 7.68135 1.33203 7.99625 1.33203C8.31115 1.33203 8.61587 1.44355 8.85638 1.64682L13.5201 5.64365C13.6682 5.76877 13.7871 5.92469 13.8687 6.10051C13.9503 6.27634 13.9925 6.46785 13.9925 6.66168V12.6579C13.9925 13.0113 13.8521 13.3503 13.6022 13.6002C13.3523 13.85 13.0134 13.9904 12.66 13.9904H3.3325C2.9791 13.9904 2.64017 13.85 2.39028 13.6002C2.14039 13.3503 2 13.0113 2 12.6579V6.66168Z" stroke="#67798D" stroke-width="1.66667" stroke-linecap="round" stroke-linejoin="round"/>
</svg>
