<svg width="48" height="48" viewBox="0 0 48 48" fill="none" xmlns="http://www.w3.org/2000/svg">
<path d="M0 14C0 6.26803 6.26801 0 14 0H33.9959C41.7279 0 47.9959 6.26801 47.9959 14V33.9959C47.9959 41.7279 41.7279 47.9959 33.9959 47.9959H14C6.26803 47.9959 0 41.7279 0 33.9959V14Z" fill="#DBEAFE"/>
<path d="M19.998 13.999V17.999" stroke="#2C3E50" stroke-width="1.99983" stroke-linecap="round" stroke-linejoin="round"/>
<path d="M27.998 13.999V17.999" stroke="#2C3E50" stroke-width="1.99983" stroke-linecap="round" stroke-linejoin="round"/>
<path d="M30.9977 15.9985H16.9989C15.8944 15.9985 14.999 16.8939 14.999 17.9984V31.9972C14.999 33.1016 15.8944 33.997 16.9989 33.997H30.9977C32.1021 33.997 32.9975 33.1016 32.9975 31.9972V17.9984C32.9975 16.8939 32.1021 15.9985 30.9977 15.9985Z" stroke="#2C3E50" stroke-width="1.99983" stroke-linecap="round" stroke-linejoin="round"/>
<path d="M14.999 21.998H32.9975" stroke="#2C3E50" stroke-width="1.99983" stroke-linecap="round" stroke-linejoin="round"/>
</svg>
