<svg width="16" height="16" viewBox="0 0 16 16" fill="none" xmlns="http://www.w3.org/2000/svg">
<g clip-path="url(#clip0_181_751)">
<path d="M10.6613 13.9943V12.6616C10.6613 11.9547 10.3804 11.2767 9.88057 10.7768C9.38069 10.2769 8.70271 9.99609 7.99578 9.99609H3.99753C3.2906 9.99609 2.61262 10.2769 2.11274 10.7768C1.61286 11.2767 1.33203 11.9547 1.33203 12.6616V13.9943" stroke="#67798D" stroke-width="1.33275" stroke-linecap="round" stroke-linejoin="round"/>
<path d="M5.99753 7.331C7.46964 7.331 8.66303 6.13761 8.66303 4.6655C8.66303 3.19338 7.46964 2 5.99753 2C4.52542 2 3.33203 3.19338 3.33203 4.6655C3.33203 6.13761 4.52542 7.331 5.99753 7.331Z" stroke="#67798D" stroke-width="1.33275" stroke-linecap="round" stroke-linejoin="round"/>
<path d="M14.6593 13.9937V12.6609C14.6588 12.0703 14.4623 11.4966 14.1004 11.0298C13.7386 10.5631 13.232 10.2297 12.6602 10.082" stroke="#67798D" stroke-width="1.33275" stroke-linecap="round" stroke-linejoin="round"/>
<path d="M10.6602 2.08594C11.2335 2.23274 11.7417 2.56619 12.1046 3.03373C12.4675 3.50126 12.6645 4.07629 12.6645 4.66814C12.6645 5.25999 12.4675 5.83501 12.1046 6.30255C11.7417 6.77008 11.2335 7.10354 10.6602 7.25034" stroke="#67798D" stroke-width="1.33275" stroke-linecap="round" stroke-linejoin="round"/>
</g>
<defs>
<clipPath id="clip0_181_751">
<rect width="15.993" height="15.993" fill="white"/>
</clipPath>
</defs>
</svg>
