<svg xmlns="http://www.w3.org/2000/svg" viewBox="0 0 1536 1024">
<path d="M 812,742 811,743 801,743 800,744 797,744 796,745 793,745 792,746 791,746 790,747 789,747 787,749 786,749 784,751 784,752 782,754 782,755 781,756 781,758 780,759 780,761 779,762 779,770 780,771 780,774 781,775 781,776 783,778 783,779 785,781 786,781 789,784 790,784 791,785 792,785 793,786 795,786 796,787 800,787 801,788 816,788 817,787 821,787 822,786 824,786 825,785 827,785 828,784 829,784 830,783 831,783 832,782 833,782 834,781 835,781 837,779 838,779 849,768 849,767 851,765 851,764 852,763 852,762 853,761 853,759 854,758 854,753 853,752 853,749 851,747 851,746 850,746 849,745 848,745 847,744 844,744 843,743 826,743 825,742 Z" fill="#2C3E50"/>
<path d="M 652,574 651,575 648,575 647,576 646,576 645,577 644,577 644,578 643,579 643,580 642,581 642,591 641,592 641,597 640,598 640,603 641,604 641,605 642,606 643,606 644,607 646,607 647,608 649,608 650,609 652,609 653,610 654,610 655,611 657,611 658,612 659,612 660,613 661,613 663,615 668,615 669,614 670,614 676,608 677,608 679,606 680,606 681,605 682,605 684,603 685,603 686,602 687,602 689,600 689,598 690,597 690,594 689,593 689,589 688,588 688,585 687,584 687,581 686,580 686,578 685,577 684,577 683,576 681,576 680,575 675,575 674,574 Z" fill="#2C3E50"/>
<path d="M 586,455 585,456 578,456 577,457 575,457 574,458 571,458 570,459 569,459 568,460 567,460 566,461 565,461 564,462 563,462 562,463 561,463 558,466 557,466 554,469 554,470 552,472 552,473 551,474 551,476 550,477 550,481 549,482 549,487 550,488 550,490 551,491 551,493 552,494 552,495 553,496 553,497 558,502 559,502 561,504 562,504 564,506 566,506 567,507 569,507 570,508 572,508 573,509 580,509 581,510 589,510 590,509 596,509 597,508 600,508 601,507 603,507 604,506 606,506 607,505 608,505 609,504 611,504 612,503 613,503 615,501 616,501 618,499 619,499 626,492 626,491 627,490 627,489 628,488 628,486 629,485 629,478 628,477 628,475 627,474 627,473 626,472 626,471 624,469 624,468 622,466 621,466 618,463 617,463 615,461 614,461 613,460 612,460 611,459 610,459 609,458 607,458 606,457 603,457 602,456 596,456 595,455 Z" fill="#2C3E50"/>
<path d="M 978,434 977,435 973,435 972,436 970,436 969,437 967,437 966,438 965,438 964,439 963,439 960,442 959,442 952,449 952,450 951,451 951,452 950,453 950,454 949,455 949,463 950,464 950,465 951,466 951,467 955,471 956,471 957,472 958,472 959,473 961,473 962,474 965,474 966,475 980,475 981,474 985,474 986,473 988,473 989,472 990,472 991,471 992,471 993,470 994,470 995,469 996,469 998,467 999,467 999,466 1001,464 1001,462 1002,461 1002,460 1001,459 1001,457 999,455 999,454 997,452 997,451 996,450 996,448 995,447 995,445 994,444 994,443 993,442 993,440 990,437 989,437 988,436 987,436 986,435 983,435 982,434 Z" fill="#2C3E50"/>
<path d="M 866,400 865,401 861,401 860,402 858,402 857,403 855,403 854,404 852,404 851,405 849,405 848,406 847,406 846,407 845,407 844,408 842,408 841,409 840,409 839,410 838,410 837,411 835,411 834,412 833,412 832,413 831,413 830,414 829,414 828,415 827,415 826,416 825,416 824,417 824,427 825,428 825,433 826,434 826,439 827,440 827,443 828,444 828,447 829,448 829,451 830,452 830,454 831,455 831,457 832,458 832,460 833,461 833,463 834,464 834,465 835,466 835,468 836,469 837,469 837,468 839,466 839,465 843,461 843,460 846,457 847,457 851,453 852,453 854,451 855,451 856,450 857,450 858,449 859,450 859,456 858,457 858,476 859,477 859,480 860,481 860,483 861,484 861,485 862,486 862,488 863,489 863,490 864,491 864,492 865,493 865,495 866,496 866,498 867,499 867,501 868,502 868,505 869,506 869,509 870,510 870,515 871,516 871,522 872,523 872,530 871,531 871,534 870,535 870,537 869,538 869,541 868,542 868,556 869,557 869,560 871,562 871,563 872,564 873,564 874,565 875,565 876,566 887,566 888,565 890,565 892,563 893,563 894,562 895,562 897,560 899,560 900,559 907,559 908,560 920,560 921,559 924,559 925,558 926,558 927,557 928,557 929,556 930,556 931,555 932,555 934,553 935,553 938,550 939,550 943,546 943,545 945,543 945,542 946,541 946,536 945,535 945,534 943,532 935,532 934,533 932,533 931,534 929,534 928,535 920,535 919,534 917,534 915,532 914,532 910,528 909,528 908,527 907,527 906,526 904,526 903,527 902,527 899,530 898,530 896,528 896,526 895,525 895,521 894,520 894,504 893,503 893,502 894,501 894,469 895,468 895,445 894,444 895,443 895,442 894,441 894,418 893,417 893,413 892,412 892,410 889,407 889,406 886,403 885,403 884,402 883,402 882,401 881,401 880,400 Z" fill="#2C3E50"/>
<path d="M 929,315 928,316 927,316 926,317 924,317 923,318 919,318 918,319 907,319 905,321 905,323 904,324 904,338 903,339 903,341 902,342 902,346 903,347 903,348 905,350 906,350 907,351 910,351 911,352 913,352 914,353 917,353 918,354 919,354 920,355 922,355 923,356 925,356 926,357 932,357 933,356 935,356 937,354 938,354 939,353 940,353 941,352 942,352 943,351 944,351 945,350 947,350 948,349 949,349 950,348 952,348 953,347 954,347 955,346 956,346 957,345 958,345 961,342 961,340 962,339 961,338 961,337 960,336 960,335 959,334 958,334 956,332 955,332 954,331 953,331 951,329 950,329 948,327 947,327 944,324 943,324 934,315 Z" fill="#2C3E50"/>
<path d="M 831,170 830,171 829,171 825,175 825,176 824,177 824,180 823,181 823,185 824,186 824,190 825,191 825,193 826,194 826,195 828,197 828,206 829,207 829,208 830,209 830,210 833,213 833,214 835,216 835,222 834,223 834,227 833,228 833,232 832,233 832,236 831,237 831,239 830,240 830,241 829,242 829,243 828,244 828,246 827,247 827,248 826,249 826,250 825,251 825,252 824,253 824,254 823,255 823,256 822,257 822,258 821,259 821,260 820,261 820,263 819,264 819,267 818,268 818,273 815,276 814,276 813,277 812,277 811,278 809,278 807,280 806,280 805,281 804,281 803,282 802,282 800,284 799,284 797,286 796,286 794,288 793,288 791,290 788,290 787,291 779,291 778,292 773,292 772,293 769,293 768,294 766,294 765,295 763,295 762,296 760,296 759,297 758,297 757,298 753,298 751,296 751,295 750,294 750,293 749,292 749,289 750,288 754,288 755,287 758,287 759,286 760,286 761,285 762,285 764,283 764,282 765,281 765,278 764,277 764,276 763,275 763,274 762,273 762,270 761,269 761,264 760,263 760,262 763,259 763,257 760,254 759,254 757,252 756,252 754,250 754,249 753,248 753,247 752,246 752,245 751,244 751,243 749,241 749,240 748,239 748,237 749,236 749,235 750,234 750,233 751,232 751,230 749,230 748,229 749,228 749,227 750,226 750,224 748,224 746,226 744,226 743,225 744,224 744,222 745,221 745,219 744,219 741,222 740,222 739,223 738,223 737,224 736,224 735,225 731,225 730,226 726,226 725,227 721,227 720,228 718,228 717,229 715,229 714,228 716,226 716,225 715,225 714,226 713,226 712,227 711,227 704,234 704,235 703,236 703,237 702,238 701,237 701,235 700,235 700,236 699,237 699,239 698,240 698,241 697,242 696,242 696,243 694,245 694,246 692,248 692,249 691,250 691,253 693,251 694,252 694,258 695,259 695,262 696,263 696,265 697,266 697,267 698,268 698,269 699,270 699,271 701,273 701,274 713,286 715,286 717,288 717,292 718,293 718,302 717,303 717,304 716,305 716,306 713,309 712,309 710,311 709,311 708,312 707,312 706,313 705,313 704,314 703,314 702,315 701,315 700,316 699,316 698,317 697,317 696,318 695,318 692,321 691,321 688,324 688,325 685,328 685,329 683,331 683,332 682,333 682,334 681,335 681,337 680,338 680,339 679,340 679,342 678,343 678,345 677,346 677,347 676,348 676,349 671,354 671,355 666,360 666,361 663,364 663,365 662,366 661,366 658,363 658,362 655,359 655,358 653,356 653,355 652,354 652,353 651,352 651,351 650,350 650,348 649,347 649,346 648,345 648,343 658,333 658,332 660,330 660,328 661,327 661,326 662,325 662,315 661,314 661,313 660,312 660,311 659,310 659,309 656,306 655,306 654,305 653,305 652,304 651,304 650,303 641,303 640,304 639,303 638,303 637,302 633,306 631,304 629,304 629,305 627,307 627,308 626,309 623,309 621,311 621,315 620,316 619,315 617,317 617,318 616,319 616,323 614,325 614,326 613,327 613,328 612,329 612,330 611,331 611,333 610,334 610,337 609,338 609,340 610,341 610,344 611,345 611,346 613,348 613,349 614,349 616,351 618,351 619,352 629,352 630,353 630,354 631,355 631,357 632,358 632,360 633,361 633,363 634,364 634,367 635,368 635,371 636,372 636,376 637,377 637,380 638,381 638,384 639,385 639,387 640,388 640,389 641,390 641,391 642,392 642,393 643,394 643,395 644,396 644,397 645,398 645,399 646,400 646,401 647,402 647,403 652,408 654,408 655,409 657,409 658,408 660,408 661,407 662,407 664,405 665,405 674,396 675,396 675,395 685,385 685,384 691,378 691,377 695,373 695,372 700,367 701,368 701,370 702,371 702,373 703,374 703,375 704,376 704,377 705,378 705,380 706,381 706,382 707,383 707,385 708,386 708,387 709,388 709,390 710,391 710,393 711,394 711,396 712,397 712,399 713,400 713,402 714,403 714,405 715,406 715,408 716,409 716,411 717,412 717,415 718,416 718,420 719,421 719,433 720,434 720,448 722,448 723,449 724,449 725,450 725,451 726,452 726,457 727,458 727,475 728,476 728,479 729,480 729,483 730,484 730,485 731,486 731,487 732,488 732,489 733,490 733,491 734,492 734,493 736,495 736,496 739,499 739,500 741,502 741,503 742,504 742,505 743,506 743,507 744,508 744,509 745,510 745,511 746,512 746,513 747,514 747,515 748,516 748,517 749,518 749,519 750,520 750,521 751,522 751,523 752,524 752,526 753,527 753,528 754,529 754,531 755,532 755,533 756,534 756,536 757,537 757,539 758,540 758,543 759,544 759,547 760,548 760,551 761,552 761,556 762,557 762,560 763,561 764,561 765,560 766,560 767,559 768,560 768,562 769,563 769,566 770,567 770,570 771,571 771,576 772,577 772,583 773,584 773,588 772,589 772,592 771,593 771,596 770,597 770,600 769,601 769,606 768,607 768,613 767,614 767,634 768,635 768,641 769,642 769,646 770,647 770,652 771,653 771,657 772,658 772,661 773,662 773,667 774,668 774,673 775,674 775,681 776,682 776,698 775,699 775,701 774,702 774,703 773,704 773,705 772,706 772,709 771,710 771,725 772,726 772,727 773,728 773,729 776,732 777,732 778,733 782,733 783,734 789,734 790,733 793,733 794,732 795,732 796,731 797,731 798,730 804,730 805,731 806,731 807,732 809,732 810,733 812,733 813,734 815,734 816,735 818,735 819,736 837,736 838,735 841,735 842,734 843,734 844,733 845,733 846,732 847,732 849,730 849,729 850,728 850,722 846,718 845,718 844,717 834,717 833,716 830,716 829,715 828,715 827,714 826,714 824,712 823,712 821,710 821,709 818,706 818,705 816,703 816,702 812,698 811,698 810,697 807,697 803,701 802,700 802,699 801,698 801,696 800,695 800,688 799,687 799,674 800,673 800,658 801,657 801,647 802,646 802,636 803,635 803,610 804,609 804,605 805,604 805,600 806,599 806,597 807,596 807,594 808,593 808,591 809,590 809,588 810,587 810,582 811,581 811,575 810,574 810,566 809,565 809,558 808,557 808,551 807,550 807,546 808,545 809,545 810,544 812,544 813,543 815,543 816,542 816,538 815,537 815,534 814,533 814,531 813,530 813,527 812,526 812,523 811,522 811,520 810,519 810,516 809,515 809,512 808,511 808,508 807,507 807,504 806,503 806,499 805,498 805,495 804,494 775,494 774,493 775,492 782,492 783,491 789,491 790,490 795,490 796,489 799,489 800,488 803,488 804,487 806,487 807,486 809,486 810,485 812,485 813,484 815,484 816,483 817,483 818,482 820,482 821,481 822,481 824,479 825,479 826,478 827,478 828,477 829,477 831,475 832,475 832,473 831,472 831,471 830,470 830,469 829,468 829,467 828,466 828,465 827,464 827,462 826,461 826,460 825,459 825,457 824,456 824,454 823,453 823,451 822,450 822,447 821,446 821,443 820,442 820,438 819,437 819,433 818,432 818,428 817,427 817,421 815,421 814,422 813,422 812,423 811,423 810,424 809,424 808,425 807,425 806,426 804,426 803,427 802,427 801,428 800,428 799,429 798,429 797,430 795,430 794,431 793,431 792,432 791,432 790,433 788,433 787,434 786,434 785,435 784,435 783,436 781,436 780,437 779,437 778,438 777,438 776,439 774,439 773,440 772,440 771,441 769,441 768,442 767,442 766,443 765,443 764,444 762,444 761,443 762,442 763,442 764,441 765,441 767,439 768,439 769,438 770,438 772,436 773,436 775,434 776,434 779,431 780,431 783,428 784,428 790,422 791,422 793,420 793,413 792,412 792,396 791,395 791,345 790,344 790,337 789,336 789,329 791,327 792,327 793,326 794,326 795,325 796,325 797,324 798,324 800,322 801,322 802,321 803,321 804,320 805,320 807,318 808,318 809,317 810,317 812,315 813,315 816,312 817,312 820,309 821,309 826,304 827,304 830,301 831,301 834,298 835,298 836,297 837,297 839,295 840,295 845,290 845,288 846,287 846,285 847,284 847,279 848,278 848,274 849,273 849,268 850,267 850,260 851,259 851,237 852,236 852,228 853,227 853,224 854,223 854,222 855,221 855,220 857,218 858,219 858,220 859,220 860,219 864,219 865,218 867,218 868,217 870,217 871,216 872,216 873,215 874,215 877,212 878,212 881,209 881,208 884,205 884,204 886,202 886,200 887,199 887,197 888,196 888,191 887,190 887,188 886,187 886,186 883,183 882,183 881,182 880,182 879,181 878,181 877,180 876,180 875,179 874,179 873,178 872,178 871,177 869,177 868,176 867,176 866,175 864,175 863,174 861,174 860,173 858,173 857,172 853,172 852,171 849,171 848,170 Z" fill="#2C3E50"/>
<path d="M 768,148 767,149 765,149 764,150 761,150 760,151 757,151 756,152 754,152 753,153 751,153 750,154 748,154 747,155 744,155 743,156 741,156 740,157 738,157 737,158 736,158 735,159 733,159 732,160 730,160 729,161 728,161 727,162 725,162 724,163 722,163 721,164 720,164 719,165 718,165 717,166 715,166 714,167 713,167 712,168 710,168 709,169 708,169 707,170 705,170 704,171 703,171 702,172 701,172 700,173 699,173 698,174 697,174 696,175 695,175 694,176 693,176 692,177 691,177 690,178 688,178 687,179 686,179 685,180 684,180 683,181 682,181 680,183 679,183 678,184 677,184 676,185 675,185 673,187 672,187 671,188 670,188 669,189 668,189 667,190 666,190 664,192 663,192 661,194 660,194 659,195 658,195 656,197 655,197 653,199 652,199 649,202 648,202 645,205 644,205 642,207 641,207 638,210 637,210 631,216 630,216 624,222 623,222 606,239 606,240 599,247 599,248 595,252 595,253 591,257 591,258 588,261 588,262 586,264 586,265 583,268 583,269 581,271 581,272 579,274 579,275 578,276 578,277 576,279 576,280 574,282 574,283 572,285 572,286 571,287 571,288 570,289 570,290 568,292 568,293 567,294 567,295 565,297 565,298 564,299 564,300 563,301 563,302 562,303 562,304 561,305 561,306 560,307 560,308 559,309 559,310 558,311 558,312 556,314 556,315 555,316 555,317 554,318 554,319 553,320 553,321 552,322 552,323 551,324 551,325 550,326 550,327 549,328 549,330 548,331 548,332 546,334 546,336 545,337 545,338 544,339 544,340 543,341 543,342 542,343 542,344 540,346 540,347 539,348 539,349 538,350 538,352 537,353 537,354 536,355 536,356 535,357 535,358 534,359 534,360 533,361 533,362 532,363 532,364 531,365 531,366 530,367 530,368 529,369 529,371 528,372 528,373 527,374 527,375 525,377 525,378 524,379 524,380 523,381 523,383 522,384 522,385 521,386 521,387 520,388 520,389 519,390 519,391 518,392 518,393 517,394 517,395 516,396 516,397 515,398 515,399 514,400 514,401 513,402 513,403 512,404 512,405 511,406 511,407 510,408 510,409 509,410 509,411 508,412 508,413 507,414 507,415 506,416 506,417 505,418 505,419 504,420 504,421 503,422 503,423 502,424 502,425 501,426 501,427 500,428 500,429 499,430 499,431 497,433 497,434 496,435 496,436 495,437 495,438 494,439 494,440 492,442 492,443 491,444 491,445 490,446 490,447 489,448 489,449 488,450 488,451 486,453 486,454 485,455 485,456 484,457 484,458 482,460 482,461 481,462 481,463 480,464 480,465 478,467 478,468 477,469 477,470 475,472 475,473 474,474 474,475 473,476 473,477 471,479 471,480 470,481 470,482 468,484 468,485 467,486 467,487 465,489 465,490 464,491 464,492 462,494 462,495 460,497 460,498 459,499 459,500 457,502 457,503 456,504 456,505 454,507 454,508 453,509 453,510 451,512 451,513 449,515 449,516 448,517 448,518 446,520 446,521 444,523 444,524 442,526 442,527 441,528 441,529 439,531 439,532 437,534 437,535 436,536 436,537 434,539 434,540 432,542 432,543 431,544 431,545 429,547 429,548 427,550 427,551 426,552 426,553 424,555 424,556 422,558 422,559 421,560 421,561 419,563 419,564 417,566 417,567 416,568 416,569 414,571 414,572 413,573 413,574 411,576 411,577 409,579 409,580 408,581 408,582 407,583 407,584 406,585 406,586 404,588 404,589 403,590 403,591 402,592 402,593 401,594 401,595 400,596 400,597 399,598 399,599 397,601 397,602 396,603 396,604 395,605 395,606 394,607 394,608 393,609 393,610 392,611 392,612 391,613 391,615 390,616 390,617 389,618 389,619 388,620 388,621 387,622 387,624 386,625 386,626 385,627 385,628 384,629 384,631 383,632 383,634 382,635 382,637 381,638 381,640 380,641 380,643 379,644 379,646 378,647 378,650 377,651 377,654 376,655 376,659 375,660 375,665 374,666 374,678 373,679 373,686 374,687 374,696 375,697 375,700 376,701 376,705 377,706 377,708 378,709 378,711 379,712 379,713 380,714 380,716 381,717 381,718 383,720 383,721 384,722 384,723 386,725 386,726 388,728 388,729 391,732 391,733 396,738 396,739 398,741 399,741 406,748 407,748 411,752 412,752 414,754 415,754 417,756 418,756 420,758 421,758 423,760 424,760 425,761 426,761 427,762 428,762 430,764 431,764 432,765 433,765 434,766 435,766 436,767 437,767 438,768 439,768 440,769 441,769 442,770 443,770 444,771 445,771 446,772 448,772 449,773 450,773 451,774 452,774 453,775 455,775 456,776 457,776 458,777 460,777 461,778 462,778 463,779 465,779 466,780 468,780 469,781 471,781 472,782 474,782 475,783 477,783 478,784 480,784 481,785 483,785 484,786 486,786 487,787 490,787 491,788 493,788 494,789 497,789 498,790 501,790 502,791 504,791 505,792 508,792 509,793 513,793 514,794 517,794 518,795 521,795 522,796 525,796 526,797 530,797 531,798 535,798 536,799 541,799 542,800 546,800 547,801 552,801 553,802 558,802 559,803 565,803 566,804 571,804 572,805 580,805 581,806 587,806 588,807 596,807 597,808 606,808 607,809 617,809 618,810 629,810 630,811 648,811 649,812 677,812 678,813 712,813 712,812 706,806 706,805 701,800 701,799 698,796 698,795 695,792 695,791 693,789 693,788 691,786 691,785 689,783 689,782 688,781 688,780 686,778 686,777 684,775 684,774 683,773 683,772 681,770 681,769 680,768 680,767 679,766 679,765 678,764 678,763 677,762 677,761 676,760 676,759 675,758 675,757 674,756 674,755 673,754 673,753 672,752 672,751 671,750 671,749 670,748 670,747 669,746 669,745 668,744 668,743 667,742 667,741 666,740 666,739 665,738 665,737 664,736 664,735 663,734 663,733 662,732 662,730 661,729 661,728 660,727 660,726 659,725 659,723 658,722 658,721 657,720 657,719 656,718 656,716 655,715 655,714 654,713 654,711 653,710 653,709 652,708 652,707 651,706 651,704 650,703 650,702 649,701 649,700 648,699 648,697 647,696 647,695 646,694 646,692 645,691 645,690 644,689 644,687 643,686 643,685 642,684 642,683 641,682 641,681 640,680 640,678 639,677 639,676 638,675 638,674 637,673 637,672 636,671 636,670 635,669 635,667 633,665 633,664 632,663 632,662 631,661 631,660 630,659 630,658 628,656 628,655 627,654 627,653 625,651 625,650 623,648 623,647 621,645 621,644 618,641 618,640 614,636 614,635 606,627 605,627 599,621 598,621 595,618 594,618 593,617 592,617 590,615 589,615 588,614 587,614 585,612 584,612 583,611 582,611 581,610 579,610 578,609 577,609 576,608 575,608 574,607 573,607 572,606 570,606 569,605 567,605 566,604 565,604 564,603 562,603 561,602 559,602 558,601 556,601 555,600 553,600 552,599 550,599 549,598 548,598 547,597 545,597 544,596 543,596 542,595 540,595 539,594 538,594 537,593 536,593 535,592 534,592 533,591 532,591 531,590 530,590 528,588 527,588 526,587 525,587 523,585 522,585 519,582 518,582 506,570 506,569 503,566 503,565 502,564 502,563 500,561 500,560 499,559 499,557 498,556 498,555 497,554 497,552 496,551 496,548 495,547 495,542 494,541 494,532 493,531 493,530 494,529 493,528 492,528 492,531 491,532 491,534 490,535 490,538 489,539 489,544 488,545 488,571 489,572 489,578 490,579 490,583 491,584 491,587 492,588 492,591 493,592 493,594 494,595 494,597 495,598 495,600 496,601 496,602 497,603 497,605 498,606 498,607 499,608 499,610 500,611 500,612 501,613 501,614 502,615 502,616 503,617 503,618 504,619 504,620 505,621 505,622 506,623 506,624 508,626 508,627 509,628 509,629 511,631 511,632 513,634 513,635 515,637 515,638 519,642 519,643 523,647 523,648 527,652 526,653 525,653 523,651 522,651 520,649 519,649 518,648 517,648 514,645 513,645 510,642 509,642 505,638 504,638 485,619 485,618 481,614 481,613 478,610 478,609 477,608 477,607 475,605 475,604 474,603 474,602 472,600 472,599 471,598 471,597 470,596 470,595 469,594 469,592 468,591 468,590 467,589 467,587 466,586 466,584 465,583 465,580 464,579 464,575 463,574 463,566 462,565 462,554 463,553 463,546 464,545 464,541 465,540 465,537 466,536 466,533 467,532 467,530 468,529 468,528 469,527 469,525 470,524 470,522 471,521 471,520 472,519 472,518 473,517 473,516 474,515 474,514 475,513 475,512 476,511 476,510 477,509 477,508 478,507 478,506 480,504 480,503 481,502 481,501 482,500 482,499 484,497 484,496 485,495 485,494 487,492 487,491 488,490 488,489 489,488 489,487 491,485 491,484 492,483 492,482 493,481 493,480 495,478 495,477 496,476 496,475 497,474 497,473 499,471 499,470 501,468 501,467 502,466 502,465 503,464 503,463 504,462 504,461 505,460 505,459 506,458 506,457 507,456 507,455 509,453 509,452 510,451 510,450 511,449 511,448 512,447 512,446 514,444 514,443 515,442 515,441 516,440 516,439 517,438 517,437 518,436 518,435 519,434 519,433 520,432 520,430 521,429 521,428 522,427 522,426 523,425 523,424 525,422 525,421 526,420 526,418 527,417 527,416 528,415 528,414 529,413 529,412 530,411 530,410 531,409 531,408 532,407 532,406 533,405 533,404 534,403 534,402 535,401 535,399 536,398 536,397 537,396 537,395 538,394 538,393 539,392 539,390 540,389 540,388 541,387 541,386 542,385 542,384 543,383 543,381 544,380 544,379 545,378 545,377 546,376 546,375 547,374 547,373 548,372 548,371 549,370 549,368 550,367 550,366 551,365 551,364 552,363 552,361 553,360 553,359 554,358 554,357 555,356 555,355 556,354 556,353 557,352 557,350 558,349 558,348 559,347 559,346 560,345 560,344 561,343 561,342 562,341 562,339 563,338 563,337 564,336 564,335 565,334 565,333 566,332 566,331 567,330 567,329 568,328 568,327 569,326 569,325 570,324 570,322 571,321 571,320 572,319 572,318 573,317 573,316 574,315 574,314 575,313 575,312 576,311 576,310 577,309 577,308 578,307 578,306 579,305 579,304 580,303 580,302 581,301 581,300 582,299 582,298 583,297 583,296 584,295 584,294 585,293 585,292 587,290 587,289 588,288 588,287 589,286 589,285 590,284 590,283 592,281 592,280 594,278 594,277 596,275 596,274 597,273 597,272 599,270 599,269 601,267 601,266 603,264 603,263 606,260 606,259 609,256 609,255 613,251 613,250 619,244 619,243 625,237 625,236 628,233 629,233 642,220 643,220 649,214 650,214 653,211 654,211 657,208 658,208 660,206 661,206 664,203 665,203 668,200 669,200 671,198 672,198 674,196 675,196 676,195 677,195 679,193 680,193 681,192 682,192 684,190 685,190 686,189 687,189 689,187 690,187 691,186 692,186 693,185 694,185 695,184 696,184 698,182 699,182 700,181 701,181 702,180 703,180 704,179 705,179 706,178 707,178 708,177 709,177 710,176 711,176 712,175 713,175 714,174 715,174 716,173 717,173 718,172 720,172 721,171 722,171 723,170 724,170 725,169 726,169 727,168 728,168 729,167 730,167 731,166 733,166 734,165 735,165 736,164 737,164 738,163 740,163 741,162 742,162 743,161 744,161 745,160 747,160 748,159 749,159 750,158 751,158 752,157 754,157 755,156 756,156 757,155 759,155 760,154 761,154 762,153 763,153 764,152 765,152 766,151 768,151 769,150 770,150 772,148 Z" fill="#2C3E50"/>
<path d="M 861,125 860,126 850,126 849,127 841,127 840,128 835,128 834,129 830,129 829,130 826,130 825,131 822,131 821,132 819,132 818,133 816,133 815,134 815,135 825,135 826,134 842,134 843,135 853,135 854,136 860,136 861,137 865,137 866,138 869,138 870,139 873,139 874,140 876,140 877,141 879,141 880,142 882,142 883,143 884,143 885,144 886,144 887,145 889,145 890,146 891,146 892,147 893,147 895,149 896,149 897,150 898,150 901,153 902,153 904,155 905,155 910,160 911,160 919,168 919,169 923,173 923,174 926,177 926,178 929,181 929,182 930,183 930,184 932,186 932,187 933,188 933,189 935,191 935,192 936,193 936,194 937,195 937,196 938,197 938,199 939,200 939,201 940,202 940,203 941,204 941,205 942,206 942,207 943,208 943,209 944,210 944,211 945,212 945,214 946,215 946,216 947,217 947,218 948,219 948,221 949,222 949,223 950,224 950,226 951,227 951,228 952,229 952,231 953,232 953,233 954,234 954,236 955,237 955,239 956,240 956,241 957,242 957,244 958,245 958,246 959,247 959,249 960,250 960,251 961,252 961,254 962,255 962,256 963,257 963,259 964,260 964,261 965,262 965,263 966,264 966,265 967,266 967,267 968,268 968,269 969,270 969,271 970,272 970,273 971,274 971,275 972,276 972,277 974,279 974,280 976,282 976,283 978,285 978,286 980,288 980,289 986,295 986,296 992,302 993,302 999,308 1000,308 1006,314 1007,314 1010,317 1010,318 1014,322 1014,323 1017,326 1017,327 1018,328 1018,329 1019,330 1019,331 1021,333 1021,334 1022,335 1022,337 1023,338 1023,339 1024,340 1024,341 1025,342 1025,344 1026,345 1026,346 1027,347 1027,350 1028,351 1028,353 1029,354 1029,357 1030,358 1030,360 1031,361 1031,365 1032,366 1032,371 1033,372 1033,376 1034,377 1034,383 1035,384 1035,391 1036,392 1036,405 1037,406 1037,419 1036,420 1036,433 1035,434 1035,441 1034,442 1034,447 1033,448 1033,452 1032,453 1032,457 1031,458 1031,461 1030,462 1030,465 1029,466 1029,469 1028,470 1028,473 1027,474 1027,476 1026,477 1026,480 1025,481 1025,482 1024,483 1024,486 1023,487 1023,488 1022,489 1022,491 1021,492 1021,494 1020,495 1020,497 1019,498 1019,499 1018,500 1018,502 1017,503 1017,504 1016,505 1016,507 1015,508 1015,509 1014,510 1014,511 1013,512 1013,514 1012,515 1012,516 1011,517 1011,518 1010,519 1010,520 1009,521 1009,522 1008,523 1008,525 1007,526 1007,527 1006,528 1006,529 1005,530 1005,531 1004,532 1004,533 1003,534 1003,535 1002,536 1002,537 1000,539 1000,540 999,541 999,542 998,543 998,544 997,545 997,546 996,547 996,548 995,549 995,551 996,552 996,553 997,554 997,555 998,556 998,557 999,558 999,560 1000,561 1000,562 1001,563 1001,565 1002,566 1002,567 1003,568 1003,570 1004,571 1004,574 1005,575 1005,577 1006,578 1006,582 1007,583 1007,605 1006,606 1006,609 1005,610 1005,613 1004,614 1003,613 1003,609 1002,608 1002,606 1001,605 1001,603 1000,602 1000,600 999,599 999,598 998,597 998,596 996,594 996,593 995,592 995,591 993,589 993,588 989,584 989,583 986,580 985,580 982,577 981,577 978,574 977,574 976,573 975,573 974,572 973,572 972,571 971,571 970,570 969,570 968,569 966,569 965,568 962,568 961,567 959,567 958,566 951,566 950,565 938,565 937,566 928,566 927,567 922,567 921,568 917,568 916,569 914,569 913,570 910,570 909,571 906,571 905,572 903,572 902,573 901,573 900,574 898,574 897,575 896,575 895,576 893,576 892,577 891,577 890,578 889,578 888,579 887,579 886,580 885,580 884,581 883,581 882,582 881,582 878,585 877,585 874,588 873,588 871,590 870,590 867,593 866,593 864,595 864,596 861,599 861,600 860,601 860,602 859,603 859,605 858,606 858,615 859,616 859,618 860,619 860,620 862,622 862,623 863,624 864,624 867,627 868,627 869,628 870,628 871,629 873,629 874,630 876,630 877,631 880,631 881,632 884,632 885,633 889,633 890,634 900,634 901,635 909,635 910,634 919,634 920,633 926,633 927,632 931,632 932,631 935,631 936,630 939,630 940,629 942,629 943,628 945,628 946,627 948,627 949,626 951,626 952,625 953,625 954,624 956,624 957,623 958,623 959,622 960,622 961,623 961,626 960,627 960,629 959,630 959,633 958,634 958,637 957,638 957,640 956,641 956,643 955,644 955,646 954,647 954,649 953,650 953,653 952,654 952,656 951,657 951,659 950,660 950,661 949,662 949,664 948,665 948,668 947,669 947,671 946,672 946,674 945,675 945,676 944,677 944,679 943,680 943,681 942,682 942,684 941,685 941,687 940,688 940,689 939,690 939,692 938,693 938,695 937,696 937,697 936,698 936,700 935,701 935,702 934,703 934,704 933,705 933,707 932,708 932,709 931,710 931,711 930,712 930,714 929,715 929,716 928,717 928,718 927,719 927,721 926,722 926,723 925,724 925,725 924,726 924,727 923,728 923,729 922,730 922,731 921,732 921,733 920,734 920,736 919,737 919,738 918,739 918,740 917,741 917,742 916,743 916,744 915,745 915,746 914,747 914,748 913,749 913,750 912,751 912,752 911,753 911,754 910,755 910,756 909,757 909,758 907,760 907,761 906,762 906,763 905,764 905,765 904,766 904,767 903,768 903,769 901,771 901,772 900,773 900,774 899,775 899,776 897,778 897,779 896,780 896,781 894,783 894,784 892,786 892,787 891,788 891,789 889,791 889,792 887,794 887,795 885,797 885,798 883,800 883,801 881,803 881,804 878,807 878,808 875,811 875,812 873,814 873,815 870,818 870,819 867,822 867,823 861,829 861,830 855,836 855,837 834,858 833,858 829,862 828,862 824,866 823,866 820,869 819,869 816,872 815,872 812,875 811,875 809,877 808,877 806,879 805,879 803,881 802,881 800,883 799,883 798,884 805,884 806,883 812,883 813,882 819,882 820,881 825,881 826,880 831,880 832,879 837,879 838,878 843,878 844,877 848,877 849,876 854,876 855,875 859,875 860,874 864,874 865,873 869,873 870,872 873,872 874,871 879,871 880,870 883,870 884,869 888,869 889,868 893,868 894,867 896,867 897,866 900,866 901,865 904,865 905,864 908,864 909,863 912,863 913,862 916,862 917,861 920,861 921,860 924,860 925,859 927,859 928,858 931,858 932,857 935,857 936,856 938,856 939,855 942,855 943,854 945,854 946,853 949,853 950,852 952,852 953,851 955,851 956,850 958,850 959,849 961,849 962,848 963,848 964,847 967,847 968,846 970,846 971,845 973,845 974,844 975,844 976,843 978,843 979,842 981,842 982,841 983,841 984,840 986,840 987,839 989,839 990,838 992,838 993,837 994,837 995,836 997,836 998,835 999,835 1000,834 1002,834 1003,833 1004,833 1005,832 1007,832 1008,831 1009,831 1010,830 1012,830 1013,829 1014,829 1015,828 1016,828 1017,827 1018,827 1019,826 1021,826 1022,825 1023,825 1024,824 1025,824 1026,823 1027,823 1028,822 1029,822 1030,821 1032,821 1033,820 1034,820 1035,819 1036,819 1037,818 1038,818 1040,816 1041,816 1042,815 1044,815 1045,814 1046,814 1048,812 1049,812 1050,811 1051,811 1052,810 1053,810 1054,809 1055,809 1057,807 1058,807 1059,806 1060,806 1061,805 1062,805 1063,804 1064,804 1066,802 1067,802 1069,800 1070,800 1071,799 1072,799 1074,797 1075,797 1077,795 1078,795 1080,793 1081,793 1083,791 1084,791 1086,789 1087,789 1089,787 1090,787 1093,784 1094,784 1098,780 1099,780 1104,775 1105,775 1123,757 1123,756 1126,753 1126,752 1129,749 1129,748 1131,746 1131,745 1133,743 1133,742 1134,741 1134,740 1135,739 1135,738 1136,737 1136,736 1138,734 1138,733 1139,732 1139,731 1140,730 1140,728 1141,727 1141,726 1142,725 1142,724 1143,723 1143,721 1144,720 1144,717 1145,716 1145,714 1146,713 1146,710 1147,709 1147,706 1148,705 1148,699 1149,698 1149,687 1150,686 1150,670 1149,669 1149,655 1148,654 1148,646 1147,645 1147,639 1146,638 1146,632 1145,631 1145,627 1144,626 1144,621 1143,620 1143,615 1142,614 1142,609 1141,608 1141,603 1140,602 1140,599 1139,598 1139,594 1138,593 1138,589 1137,588 1137,584 1136,583 1136,579 1135,578 1135,575 1134,574 1134,570 1133,569 1133,565 1132,564 1132,561 1131,560 1131,556 1130,555 1130,552 1129,551 1129,548 1128,547 1128,544 1127,543 1127,539 1126,538 1126,534 1125,533 1125,530 1124,529 1124,525 1123,524 1123,521 1122,520 1122,518 1121,517 1121,513 1120,512 1120,509 1119,508 1119,505 1118,504 1118,500 1117,499 1117,496 1116,495 1116,492 1115,491 1115,488 1114,487 1114,484 1113,483 1113,480 1112,479 1112,476 1111,475 1111,472 1110,471 1110,467 1109,466 1109,463 1108,462 1108,459 1107,458 1107,455 1106,454 1106,451 1105,450 1105,446 1104,445 1104,443 1103,442 1103,438 1102,437 1102,434 1101,433 1101,429 1100,428 1100,426 1099,425 1099,422 1098,421 1098,418 1097,417 1097,414 1096,413 1096,410 1095,409 1095,405 1094,404 1094,401 1093,400 1093,397 1092,396 1092,392 1091,391 1091,388 1090,387 1090,384 1089,383 1089,380 1088,379 1088,376 1087,375 1087,371 1086,370 1086,367 1085,366 1085,363 1084,362 1084,359 1083,358 1083,355 1082,354 1082,351 1081,350 1081,347 1080,346 1080,343 1079,342 1079,339 1078,338 1078,336 1077,335 1077,333 1076,332 1076,329 1075,328 1075,326 1074,325 1074,322 1073,321 1073,319 1072,318 1072,316 1071,315 1071,313 1070,312 1070,310 1069,309 1069,306 1068,305 1068,304 1067,303 1067,301 1066,300 1066,298 1065,297 1065,295 1064,294 1064,293 1063,292 1063,290 1062,289 1062,287 1061,286 1061,285 1060,284 1060,282 1059,281 1059,280 1058,279 1058,277 1057,276 1057,275 1056,274 1056,273 1055,272 1055,270 1054,269 1054,268 1053,267 1053,266 1052,265 1052,263 1051,262 1051,261 1050,260 1050,259 1049,258 1049,257 1048,256 1048,255 1047,254 1047,253 1046,252 1046,250 1045,249 1045,248 1043,246 1043,245 1042,244 1042,243 1041,242 1041,241 1040,240 1040,239 1039,238 1039,237 1038,236 1038,235 1037,234 1037,233 1036,232 1036,231 1034,229 1034,228 1033,227 1033,226 1031,224 1031,223 1029,221 1029,220 1028,219 1028,218 1025,215 1025,214 1023,212 1023,211 1021,209 1021,208 1018,205 1018,204 1016,202 1016,201 1013,198 1013,197 1010,194 1010,193 1005,188 1005,187 995,177 995,176 994,175 993,175 992,174 992,173 991,172 990,172 983,165 982,165 977,160 976,160 973,157 972,157 969,154 968,154 966,152 965,152 964,151 963,151 961,149 960,149 959,148 958,148 956,146 955,146 954,145 953,145 952,144 951,144 949,142 947,142 946,141 945,141 944,140 943,140 942,139 941,139 940,138 938,138 937,137 936,137 935,136 933,136 932,135 931,135 930,134 928,134 927,133 924,133 923,132 921,132 920,131 917,131 916,130 913,130 912,129 908,129 907,128 902,128 901,127 895,127 894,126 883,126 882,125 Z" fill="#2C3E50"/>
</svg>