<svg width="16" height="16" viewBox="0 0 16 16" fill="none" xmlns="http://www.w3.org/2000/svg">
<g clip-path="url(#clip0_97_1163)">
<path d="M1.37467 8.23182C1.31912 8.08216 1.31912 7.91753 1.37467 7.76786C1.91576 6.45588 2.83423 5.3341 4.01363 4.54474C5.19303 3.75538 6.58026 3.33398 7.99944 3.33398C9.41863 3.33398 10.8059 3.75538 11.9853 4.54474C13.1647 5.3341 14.0831 6.45588 14.6242 7.76786C14.6798 7.91753 14.6798 8.08216 14.6242 8.23182C14.0831 9.54381 13.1647 10.6656 11.9853 11.4549C10.8059 12.2443 9.41863 12.6657 7.99944 12.6657C6.58026 12.6657 5.19303 12.2443 4.01363 11.4549C2.83423 10.6656 1.91576 9.54381 1.37467 8.23182Z" stroke="#67798D" stroke-width="1.33322" stroke-linecap="round" stroke-linejoin="round"/>
<path d="M7.99885 9.99966C9.10333 9.99966 9.99868 9.1043 9.99868 7.99983C9.99868 6.89535 9.10333 6 7.99885 6C6.89438 6 5.99902 6.89535 5.99902 7.99983C5.99902 9.1043 6.89438 9.99966 7.99885 9.99966Z" stroke="#67798D" stroke-width="1.33322" stroke-linecap="round" stroke-linejoin="round"/>
</g>
<defs>
<clipPath id="clip0_97_1163">
<rect width="15.9986" height="15.9986" fill="white"/>
</clipPath>
</defs>
</svg>
