<svg width="64" height="64" viewBox="0 0 64 64" fill="none" xmlns="http://www.w3.org/2000/svg">
<path d="M0 31.998C0 14.326 14.326 0 31.998 0C49.67 0 63.996 14.326 63.996 31.998C63.996 49.67 49.67 63.996 31.998 63.996C14.326 63.996 0 49.67 0 31.998Z" fill="#DCFCE7"/>
<path d="M31.9921 45.3222C39.3541 45.3222 45.3222 39.3541 45.3222 31.9922C45.3222 24.6302 39.3541 18.6621 31.9921 18.6621C24.6301 18.6621 18.662 24.6302 18.662 31.9922C18.662 39.3541 24.6301 45.3222 31.9921 45.3222Z" stroke="#00A63E" stroke-width="2.66601" stroke-linecap="round" stroke-linejoin="round"/>
<path d="M27.9931 31.9922L30.6591 34.6582L35.9911 29.3262" stroke="#00A63E" stroke-width="2.66601" stroke-linecap="round" stroke-linejoin="round"/>
</svg>
