<svg width="40" height="40" viewBox="0 0 40 40" fill="none" xmlns="http://www.w3.org/2000/svg">
<path d="M0 14C0 6.26801 6.26801 0 14 0H25.9966C33.7286 0 39.9966 6.26801 39.9966 14V25.9966C39.9966 33.7286 33.7286 39.9966 25.9966 39.9966H14C6.26801 39.9966 0 33.7286 0 25.9966V14Z" fill="#DBEAFE"/>
<path d="M26.6647 13.332H13.3325C12.4121 13.332 11.666 14.0782 11.666 14.9986V24.9977C11.666 25.9181 12.4121 26.6642 13.3325 26.6642H26.6647C27.5851 26.6642 28.3313 25.9181 28.3313 24.9977V14.9986C28.3313 14.0782 27.5851 13.332 26.6647 13.332Z" stroke="#155DFC" stroke-width="1.66652" stroke-linecap="round" stroke-linejoin="round"/>
<path d="M28.3313 15.832L20.8569 20.5816C20.5996 20.7428 20.3022 20.8283 19.9986 20.8283C19.6951 20.8283 19.3976 20.7428 19.1404 20.5816L11.666 15.832" stroke="#155DFC" stroke-width="1.66652" stroke-linecap="round" stroke-linejoin="round"/>
</svg>
