<svg width="16" height="16" viewBox="0 0 16 16" fill="none" xmlns="http://www.w3.org/2000/svg">
<g clip-path="url(#clip0_263_290)">
<path d="M1.37369 8.22908C1.31814 8.07944 1.31814 7.91484 1.37369 7.7652C1.91469 6.45342 2.83301 5.33182 4.01222 4.54259C5.19144 3.75335 6.57844 3.33203 7.99739 3.33203C9.41635 3.33203 10.8034 3.75335 11.9826 4.54259C13.1618 5.33182 14.0801 6.45342 14.6211 7.7652C14.6766 7.91484 14.6766 8.07944 14.6211 8.22908C14.0801 9.54086 13.1618 10.6625 11.9826 11.4517C10.8034 12.2409 9.41635 12.6622 7.99739 12.6622C6.57844 12.6622 5.19144 12.2409 4.01222 11.4517C2.83301 10.6625 1.91469 9.54086 1.37369 8.22908Z" stroke="#67798D" stroke-width="1.33301" stroke-linecap="round" stroke-linejoin="round"/>
<path d="M7.99951 9.99706C9.10381 9.99706 9.99902 9.10185 9.99902 7.99755C9.99902 6.89326 9.10381 5.99805 7.99951 5.99805C6.89521 5.99805 6 6.89326 6 7.99755C6 9.10185 6.89521 9.99706 7.99951 9.99706Z" stroke="#67798D" stroke-width="1.33301" stroke-linecap="round" stroke-linejoin="round"/>
</g>
<defs>
<clipPath id="clip0_263_290">
<rect width="15.9961" height="15.9961" fill="white"/>
</clipPath>
</defs>
</svg>
