<svg width="40" height="40" viewBox="0 0 40 40" fill="none" xmlns="http://www.w3.org/2000/svg">
<path d="M0 14C0 6.26801 6.26801 0 14 0H25.9966C33.7286 0 39.9966 6.26801 39.9966 14V25.9966C39.9966 33.7286 33.7286 39.9966 25.9966 39.9966H14C6.26801 39.9966 0 33.7286 0 25.9966V14Z" fill="#DBEAFE"/>
<path d="M22.4979 11.6655H14.9986C14.5566 11.6655 14.1327 11.8411 13.8201 12.1536C13.5076 12.4662 13.332 12.8901 13.332 13.3321V26.6642C13.332 27.1062 13.5076 27.5301 13.8201 27.8427C14.1327 28.1552 14.5566 28.3308 14.9986 28.3308H24.9977C25.4397 28.3308 25.8636 28.1552 26.1761 27.8427C26.4886 27.5301 26.6642 27.1062 26.6642 26.6642V15.8318L22.4979 11.6655Z" stroke="#155DFC" stroke-width="1.66652" stroke-linecap="round" stroke-linejoin="round"/>
<path d="M21.665 11.6655V14.9986C21.665 15.4406 21.8406 15.8645 22.1532 16.177C22.4657 16.4895 22.8896 16.6651 23.3316 16.6651H26.6646" stroke="#155DFC" stroke-width="1.66652" stroke-linecap="round" stroke-linejoin="round"/>
<path d="M17.498 22.4981L19.1646 24.1646L22.4976 20.8315" stroke="#155DFC" stroke-width="1.66652" stroke-linecap="round" stroke-linejoin="round"/>
</svg>
