<svg width="32" height="32" viewBox="0 0 32 32" fill="none" xmlns="http://www.w3.org/2000/svg">
<path d="M13.3342 26.6667C13.334 26.9144 13.403 27.1573 13.5332 27.3681C13.6634 27.5789 13.8498 27.7492 14.0715 27.86L16.7382 29.1933C16.9415 29.2949 17.1674 29.3429 17.3945 29.3326C17.6215 29.3223 17.8422 29.2541 18.0355 29.1346C18.2288 29.015 18.3884 28.848 18.499 28.6494C18.6096 28.4509 18.6676 28.2273 18.6675 28V18.6667C18.6678 18.0058 18.9134 17.3687 19.3568 16.8787L28.9875 6.22667C29.1601 6.03541 29.2736 5.79824 29.3143 5.54384C29.355 5.28945 29.3211 5.02871 29.2167 4.79317C29.1123 4.55762 28.9419 4.35736 28.7262 4.2166C28.5104 4.07584 28.2585 4.00061 28.0008 4H4.00082C3.74296 4.00009 3.49067 4.07495 3.27449 4.21552C3.05831 4.35608 2.88753 4.55631 2.78283 4.79195C2.67813 5.0276 2.644 5.28854 2.68459 5.54319C2.72517 5.79783 2.83872 6.03524 3.01149 6.22667L12.6448 16.8787C13.0882 17.3687 13.3339 18.0058 13.3342 18.6667V26.6667Z" stroke="#67798D" stroke-width="1.33322" stroke-linecap="round" stroke-linejoin="round"/>
</svg>
