<svg width="46" height="46" viewBox="0 0 46 46" fill="none" xmlns="http://www.w3.org/2000/svg">
<path d="M32.5833 3.83301H13.4166C8.12392 3.83301 3.83331 8.12361 3.83331 13.4163V32.583C3.83331 37.8757 8.12392 42.1663 13.4166 42.1663H32.5833C37.876 42.1663 42.1666 37.8757 42.1666 32.583V13.4163C42.1666 8.12361 37.876 3.83301 32.5833 3.83301Z" stroke="#2C3E50" stroke-width="1.66626" stroke-linecap="round" stroke-linejoin="round"/>
<path d="M30.6667 21.7921C30.9032 23.3872 30.6308 25.0163 29.888 26.4477C29.1453 27.8791 27.9702 29.0398 26.5298 29.7648C25.0894 30.4898 23.457 30.7422 21.8649 30.486C20.2728 30.2298 18.802 29.4781 17.6618 28.3378C16.5215 27.1976 15.7698 25.7268 15.5136 24.1347C15.2574 22.5426 15.5098 20.9102 16.2348 19.4698C16.9598 18.0294 18.1205 16.8543 19.5519 16.1116C20.9833 15.3689 22.6124 15.0964 24.2075 15.3329C25.8346 15.5742 27.341 16.3324 28.5041 17.4955C29.6672 18.6586 30.4254 20.165 30.6667 21.7921Z" stroke="#2C3E50" stroke-width="1.66626" stroke-linecap="round" stroke-linejoin="round"/>
<path d="M33.5417 12.458H33.5609" stroke="#2C3E50" stroke-width="1.66626" stroke-linecap="round" stroke-linejoin="round"/>
</svg>
