<svg width="40" height="40" viewBox="0 0 40 40" fill="none" xmlns="http://www.w3.org/2000/svg">
<path d="M25.7965 21.4824L28.3215 35.6924C28.3498 35.8597 28.3263 36.0317 28.2542 36.1853C28.1821 36.339 28.0649 36.4669 27.9181 36.5521C27.7713 36.6373 27.602 36.6756 27.4329 36.6619C27.2637 36.6483 27.1028 36.5833 26.9715 36.4758L21.0049 31.9974C20.7168 31.7822 20.3669 31.666 20.0074 31.666C19.6478 31.666 19.2979 31.7822 19.0099 31.9974L13.0332 36.4741C12.9021 36.5815 12.7413 36.6463 12.5724 36.66C12.4034 36.6736 12.2343 36.6355 12.0876 36.5505C11.941 36.4656 11.8237 36.338 11.7514 36.1846C11.6791 36.0313 11.6554 35.8596 11.6832 35.6924L14.2065 21.4824" stroke="#2C3E50" stroke-width="1.66667" stroke-linecap="round" stroke-linejoin="round"/>
<path d="M20 23.334C25.5228 23.334 30 18.8568 30 13.334C30 7.81114 25.5228 3.33398 20 3.33398C14.4772 3.33398 10 7.81114 10 13.334C10 18.8568 14.4772 23.334 20 23.334Z" stroke="#2C3E50" stroke-width="1.66667" stroke-linecap="round" stroke-linejoin="round"/>
</svg>
