<svg width="46" height="46" viewBox="0 0 46 46" fill="none" xmlns="http://www.w3.org/2000/svg">
<path d="M38.3334 19.1663C38.3334 28.7363 27.7169 38.7029 24.1519 41.7811C23.8198 42.0308 23.4155 42.1659 23 42.1659C22.5845 42.1659 22.1802 42.0308 21.8481 41.7811C18.2831 38.7029 7.66669 28.7363 7.66669 19.1663C7.66669 15.0997 9.28216 11.1996 12.1577 8.32404C15.0333 5.44848 18.9334 3.83301 23 3.83301C27.0667 3.83301 30.9668 5.44848 33.8423 8.32404C36.7179 11.1996 38.3334 15.0997 38.3334 19.1663Z" stroke="#2C3E50" stroke-width="1.66626" stroke-linecap="round" stroke-linejoin="round"/>
<path d="M23 24.917C26.1756 24.917 28.75 22.3426 28.75 19.167C28.75 15.9914 26.1756 13.417 23 13.417C19.8244 13.417 17.25 15.9914 17.25 19.167C17.25 22.3426 19.8244 24.917 23 24.917Z" stroke="#2C3E50" stroke-width="1.66626" stroke-linecap="round" stroke-linejoin="round"/>
</svg>
