<svg width="40" height="40" viewBox="0 0 40 40" fill="none" xmlns="http://www.w3.org/2000/svg">
<path d="M33.6667 16.3333C33.6667 24.655 24.435 33.3217 21.335 35.9983C21.0462 36.2155 20.6947 36.3329 20.3333 36.3329C19.972 36.3329 19.6205 36.2155 19.3317 35.9983C16.2317 33.3217 7 24.655 7 16.3333C7 12.7971 8.40476 9.40573 10.9052 6.90524C13.4057 4.40476 16.7971 3 20.3333 3C23.8696 3 27.2609 4.40476 29.7614 6.90524C32.2619 9.40573 33.6667 12.7971 33.6667 16.3333Z" stroke="#2C3E50" stroke-width="1.66667" stroke-linecap="round" stroke-linejoin="round"/>
<path d="M20 21.666C22.7614 21.666 25 19.4274 25 16.666C25 13.9046 22.7614 11.666 20 11.666C17.2386 11.666 15 13.9046 15 16.666C15 19.4274 17.2386 21.666 20 21.666Z" stroke="#2C3E50" stroke-width="1.66667" stroke-linecap="round" stroke-linejoin="round"/>
</svg>
