<svg width="16" height="16" viewBox="0 0 16 16" fill="none" xmlns="http://www.w3.org/2000/svg">
<g clip-path="url(#clip0_204_76)">
<path d="M13.3333 6.66634C13.3333 9.99501 9.64067 13.4617 8.40067 14.5323C8.28515 14.6192 8.14454 14.6662 8.00001 14.6662C7.85547 14.6662 7.71486 14.6192 7.59934 14.5323C6.35934 13.4617 2.66667 9.99501 2.66667 6.66634C2.66667 5.25185 3.22858 3.8953 4.22877 2.89511C5.22896 1.89491 6.58552 1.33301 8.00001 1.33301C9.41449 1.33301 10.771 1.89491 11.7712 2.89511C12.7714 3.8953 13.3333 5.25185 13.3333 6.66634Z" stroke="#67798D" stroke-width="1.33333" stroke-linecap="round" stroke-linejoin="round"/>
<path d="M8 8.66699C9.10457 8.66699 10 7.77156 10 6.66699C10 5.56242 9.10457 4.66699 8 4.66699C6.89543 4.66699 6 5.56242 6 6.66699C6 7.77156 6.89543 8.66699 8 8.66699Z" stroke="#67798D" stroke-width="1.33333" stroke-linecap="round" stroke-linejoin="round"/>
</g>
<defs>
<clipPath id="clip0_204_76">
<rect width="16" height="16" fill="white"/>
</clipPath>
</defs>
</svg>
