<svg width="16" height="16" viewBox="0 0 16 16" fill="none" xmlns="http://www.w3.org/2000/svg">
<g clip-path="url(#clip0_184_3862)">
<path d="M7.99804 2H3.33252C2.97898 2 2.63993 2.14044 2.38994 2.39043C2.13995 2.64042 1.99951 2.97947 1.99951 3.33301V12.664C1.99951 13.0176 2.13995 13.3566 2.38994 13.6066C2.63993 13.8566 2.97898 13.997 3.33252 13.997H12.6636C13.0171 13.997 13.3561 13.8566 13.6061 13.6066C13.8561 13.3566 13.9966 13.0176 13.9966 12.664V7.99852" stroke="white" stroke-width="1.33301" stroke-linecap="round" stroke-linejoin="round"/>
<path d="M12.247 1.75005C12.5121 1.4849 12.8718 1.33594 13.2467 1.33594C13.6217 1.33594 13.9813 1.4849 14.2465 1.75005C14.5116 2.0152 14.6606 2.37482 14.6606 2.7498C14.6606 3.12478 14.5116 3.48441 14.2465 3.74956L8.2393 9.75741C8.08103 9.91554 7.88552 10.0313 7.67077 10.094L5.75591 10.6539C5.69856 10.6706 5.63776 10.6716 5.57989 10.6568C5.52202 10.6419 5.4692 10.6118 5.42695 10.5696C5.38471 10.5273 5.3546 10.4745 5.33977 10.4166C5.32495 10.3588 5.32595 10.298 5.34268 10.2406L5.90254 8.32576C5.96554 8.11118 6.08152 7.9159 6.23979 7.7579L12.247 1.75005Z" stroke="white" stroke-width="1.33301" stroke-linecap="round" stroke-linejoin="round"/>
</g>
<defs>
<clipPath id="clip0_184_3862">
<rect width="15.9961" height="15.9961" fill="white"/>
</clipPath>
</defs>
</svg>
