<svg width="16" height="16" viewBox="0 0 16 16" fill="none" xmlns="http://www.w3.org/2000/svg">
<g clip-path="url(#clip0_184_4819)">
<path d="M14.6631 11.2802V13.2797C14.6638 13.4654 14.6258 13.6491 14.5514 13.8192C14.4771 13.9892 14.368 14.1419 14.2312 14.2674C14.0945 14.3929 13.933 14.4884 13.7571 14.5479C13.5813 14.6074 13.395 14.6294 13.2101 14.6127C11.1592 14.3899 9.18909 13.6891 7.45818 12.5666C5.8478 11.5433 4.48247 10.1779 3.45917 8.56756C2.33276 6.82879 1.63178 4.84913 1.413 2.78898C1.39635 2.60467 1.41825 2.41891 1.47732 2.24353C1.53639 2.06815 1.63133 1.90699 1.7561 1.77031C1.88086 1.63363 2.03272 1.52443 2.202 1.44966C2.37128 1.37488 2.55428 1.33618 2.73934 1.336H4.73885C5.06231 1.33282 5.37589 1.44736 5.62114 1.65828C5.86639 1.8692 6.02659 2.1621 6.07186 2.48239C6.15625 3.12227 6.31276 3.75056 6.53841 4.35526C6.62808 4.59382 6.64749 4.85308 6.59433 5.10233C6.54117 5.35158 6.41768 5.58036 6.23848 5.76158L5.39202 6.60804C6.34083 8.27666 7.72242 9.65825 9.39104 10.6071L10.2375 9.7606C10.4187 9.5814 10.6475 9.4579 10.8967 9.40475C11.146 9.35159 11.4053 9.371 11.6438 9.46067C12.2485 9.68631 12.8768 9.84283 13.5167 9.92722C13.8405 9.9729 14.1361 10.136 14.3475 10.3854C14.5589 10.6349 14.6712 10.9534 14.6631 11.2802Z" stroke="#2C3E50" stroke-width="1.33301" stroke-linecap="round" stroke-linejoin="round"/>
</g>
<defs>
<clipPath id="clip0_184_4819">
<rect width="15.9961" height="15.9961" fill="white"/>
</clipPath>
</defs>
</svg>
