<svg width="20" height="20" viewBox="0 0 20 20" fill="none" xmlns="http://www.w3.org/2000/svg">
<g clip-path="url(#clip0_204_1108)">
<path d="M17.8454 9.09815C17.9945 9.03235 18.1211 8.92425 18.2094 8.78723C18.2977 8.6502 18.3439 8.49029 18.3422 8.32728C18.3405 8.16428 18.291 8.00535 18.1999 7.87018C18.1088 7.73502 17.98 7.62955 17.8295 7.56686L10.6888 4.31432C10.4717 4.2153 10.2359 4.16406 9.99729 4.16406C9.75869 4.16406 9.52288 4.2153 9.3058 4.31432L2.16589 7.56352C2.01756 7.62848 1.89139 7.73526 1.80278 7.87079C1.71418 8.00633 1.66699 8.16474 1.66699 8.32667C1.66699 8.48859 1.71418 8.64701 1.80278 8.78254C1.89139 8.91808 2.01756 9.02485 2.16589 9.08981L9.3058 12.3457C9.52288 12.4447 9.75869 12.4959 9.99729 12.4959C10.2359 12.4959 10.4717 12.4447 10.6888 12.3457L17.8454 9.09815Z" stroke="#2C3E50" stroke-width="1.66626" stroke-linecap="round" stroke-linejoin="round"/>
<path d="M18.3291 8.33203V13.3308" stroke="#2C3E50" stroke-width="1.66626" stroke-linecap="round" stroke-linejoin="round"/>
<path d="M4.99902 10.4141V13.33C4.99902 13.9929 5.52568 14.6286 6.46313 15.0973C7.40058 15.5661 8.67204 15.8294 9.99779 15.8294C11.3235 15.8294 12.595 15.5661 13.5325 15.0973C14.4699 14.6286 14.9966 13.9929 14.9966 13.33V10.4141" stroke="#2C3E50" stroke-width="1.66626" stroke-linecap="round" stroke-linejoin="round"/>
</g>
<defs>
<clipPath id="clip0_204_1108">
<rect width="19.9951" height="19.9951" fill="white"/>
</clipPath>
</defs>
</svg>
