<svg width="20" height="20" viewBox="0 0 20 20" fill="none" xmlns="http://www.w3.org/2000/svg">
<path d="M12.4988 17.4962V10.8312C12.4988 10.6102 12.411 10.3983 12.2548 10.2421C12.0985 10.0858 11.8866 9.99805 11.6656 9.99805H8.33313C8.11217 9.99805 7.90026 10.0858 7.74402 10.2421C7.58778 10.3983 7.5 10.6102 7.5 10.8312V17.4962" stroke="#2C3E50" stroke-width="1.66626" stroke-linecap="round" stroke-linejoin="round"/>
<path d="M2.5 8.33061C2.49994 8.08822 2.55277 7.84875 2.65479 7.62888C2.7568 7.40901 2.90556 7.21405 3.09069 7.05759L8.92259 2.05965C9.22333 1.80547 9.60438 1.66602 9.99815 1.66602C10.3919 1.66602 10.773 1.80547 11.0737 2.05965L16.9056 7.05759C17.0907 7.21405 17.2395 7.40901 17.3415 7.62888C17.4435 7.84875 17.4964 8.08822 17.4963 8.33061V15.8288C17.4963 16.2707 17.3208 16.6945 17.0083 17.007C16.6958 17.3195 16.272 17.495 15.8301 17.495H4.16626C3.72434 17.495 3.30052 17.3195 2.98804 17.007C2.67555 16.6945 2.5 16.2707 2.5 15.8288V8.33061Z" stroke="#2C3E50" stroke-width="1.66626" stroke-linecap="round" stroke-linejoin="round"/>
</svg>
