<svg width="36" height="20" viewBox="0 0 36 20" fill="none" xmlns="http://www.w3.org/2000/svg">
<path fill-rule="evenodd" clip-rule="evenodd" d="M11.0771 9.99989C11.0771 8.52647 11.8065 7.11339 13.1049 6.07152C14.4032 5.02965 16.1641 4.44434 18.0002 4.44434C19.8363 4.44434 21.5973 5.02965 22.8956 6.07152C24.1939 7.11339 24.9233 8.52647 24.9233 9.99989C24.9233 11.4733 24.1939 12.8864 22.8956 13.9283C21.5973 14.9701 19.8363 15.5554 18.0002 15.5554C16.1641 15.5554 14.4032 14.9701 13.1049 13.9283C11.8065 12.8864 11.0771 11.4733 11.0771 9.99989ZM18.0002 6.66656C16.8986 6.66656 15.842 7.01775 15.063 7.64287C14.284 8.26799 13.8464 9.11584 13.8464 9.99989C13.8464 10.8839 14.284 11.7318 15.063 12.3569C15.842 12.982 16.8986 13.3332 18.0002 13.3332C19.1019 13.3332 20.1584 12.982 20.9374 12.3569C21.7164 11.7318 22.1541 10.8839 22.1541 9.99989C22.1541 9.11584 21.7164 8.26799 20.9374 7.64287C20.1584 7.01775 19.1019 6.66656 18.0002 6.66656Z" fill="#464A58"/>
<path fill-rule="evenodd" clip-rule="evenodd" d="M3.82708 7.99407C3.05354 8.88889 2.76923 9.58963 2.76923 10C2.76923 10.4104 3.05354 11.1111 3.82708 12.0059C4.57662 12.8696 5.688 13.8074 7.09477 14.6741C9.91385 16.4104 13.7778 17.7778 18 17.7778C22.2222 17.7778 26.0862 16.4104 28.9052 14.6741C30.312 13.8074 31.4234 12.8696 32.1729 12.0059C32.9465 11.1111 33.2308 10.4104 33.2308 10C33.2308 9.58963 32.9465 8.88889 32.1729 7.99407C31.4234 7.13037 30.312 6.19259 28.9052 5.32593C26.0862 3.58963 22.2222 2.22222 18 2.22222C13.7778 2.22222 9.91385 3.58963 7.09477 5.32593C5.688 6.19259 4.57662 7.13037 3.82708 7.99407ZM5.40738 3.56296C8.60308 1.59556 13.0449 0 18 0C22.9551 0 27.3969 1.59556 30.5908 3.56296C32.1914 4.54815 33.5132 5.64741 34.4474 6.72741C35.3557 7.77778 36 8.92889 36 10C36 11.0711 35.3538 12.2222 34.4474 13.2726C33.5132 14.3526 32.1914 15.4504 30.5926 16.437C27.3988 18.4044 22.9551 20 18 20C13.0449 20 8.60308 18.4044 5.40923 16.437C3.80862 15.4518 2.48677 14.3526 1.55262 13.2726C0.646154 12.2222 0 11.0711 0 10C0 8.92889 0.646154 7.77778 1.55262 6.72741C2.48677 5.64741 3.80862 4.54963 5.40738 3.56296Z" fill="#464A58"/>
</svg>
