<svg width="20" height="20" viewBox="0 0 20 20" fill="none" xmlns="http://www.w3.org/2000/svg">
<g clip-path="url(#clip0_409_110)">
<path d="M9.99414 12.4883C11.3738 12.4883 12.4922 11.3699 12.4922 9.99023C12.4922 8.6106 11.3738 7.49219 9.99414 7.49219C8.61451 7.49219 7.49609 8.6106 7.49609 9.99023C7.49609 11.3699 8.61451 12.4883 9.99414 12.4883Z" stroke="white" stroke-width="1.6687" stroke-linecap="round" stroke-linejoin="round"/>
<path d="M16.1558 12.488C16.0449 12.7391 16.0119 13.0177 16.0609 13.288C16.1101 13.5583 16.2392 13.8073 16.4306 14.0035L16.4806 14.0535C16.6349 14.2077 16.7574 14.3911 16.8411 14.5932C16.9248 14.7952 16.9682 15.0119 16.9682 15.2307C16.9682 15.4495 16.9248 15.6662 16.8411 15.8683C16.7574 16.0703 16.6349 16.2538 16.4806 16.4079C16.3264 16.5622 16.1429 16.6847 15.9409 16.7685C15.7389 16.8522 15.5221 16.8956 15.3033 16.8956C15.0846 16.8956 14.8678 16.8522 14.6658 16.7685C14.4638 16.6847 14.2803 16.5622 14.1261 16.4079L14.0762 16.358C13.8799 16.1665 13.6309 16.0374 13.3606 15.9883C13.0903 15.9392 12.8118 15.9723 12.5606 16.0832C12.3138 16.1892 12.1052 16.3676 11.9623 16.5957C11.8194 16.8239 11.7489 17.0916 11.7603 17.3629V17.4841C11.7603 17.9257 11.5847 18.3493 11.2724 18.6617C10.9601 18.974 10.5364 19.1495 10.0949 19.1495C9.65327 19.1495 9.22965 18.974 8.91734 18.6617C8.60502 18.3493 8.42952 17.9257 8.42952 17.4841V17.4092C8.41282 17.1302 8.3307 16.8595 8.1898 16.6192C8.0489 16.3789 7.85338 16.176 7.61848 16.0269C7.36736 15.916 7.08878 15.8828 6.81848 15.932C6.54818 15.9812 6.29916 16.1103 6.10301 16.3017L6.05305 16.3517C5.89882 16.5059 5.71537 16.6284 5.51334 16.7121C5.3113 16.7958 5.0946 16.8393 4.8758 16.8393C4.65701 16.8393 4.4403 16.7958 4.23827 16.7121C4.03623 16.6284 3.85278 16.5059 3.69856 16.3517C3.54432 16.1974 3.42181 16.0139 3.33807 15.8119C3.25433 15.6099 3.21094 15.3932 3.21094 15.1744C3.21094 14.9556 3.25433 14.7388 3.33807 14.5368C3.42181 14.3348 3.54432 14.1513 3.69856 13.9971L3.74851 13.9472C3.93997 13.751 4.06906 13.502 4.11818 13.2317C4.1673 12.9614 4.13419 12.6828 4.0233 12.4317C3.91727 12.1849 3.73894 11.9763 3.51076 11.8334C3.28258 11.6905 3.01494 11.62 2.74364 11.6314H2.6224C2.18079 11.6314 1.75717 11.4558 1.44485 11.1436C1.13254 10.8312 0.957031 10.4076 0.957031 9.96598C0.957031 9.52437 1.13254 9.10075 1.44485 8.78843C1.75717 8.47612 2.18079 8.30061 2.6224 8.30061H2.69734C2.97629 8.28392 3.24701 8.20179 3.48732 8.06089C3.72764 7.91999 3.93053 7.72447 4.07959 7.48958C4.19048 7.23845 4.2236 6.95987 4.17448 6.68957C4.12535 6.41927 3.99627 6.17025 3.80481 5.9741L3.75484 5.92414C3.60062 5.76991 3.47809 5.58647 3.39436 5.38443C3.31062 5.18239 3.26723 4.96569 3.26723 4.74689C3.26723 4.5281 3.31062 4.31139 3.39436 4.10936C3.47809 3.90733 3.60062 3.72387 3.75484 3.56965C3.90907 3.41541 4.09252 3.2929 4.29455 3.20916C4.4966 3.12542 4.7133 3.08203 4.93209 3.08203C5.15088 3.08203 5.36759 3.12542 5.56963 3.20916C5.77166 3.2929 5.95511 3.41541 6.10933 3.56965L6.1593 3.61961C6.35544 3.81106 6.60447 3.94015 6.87477 3.98927C7.14506 4.0384 7.42365 4.00528 7.67478 3.89439H7.75805C8.00484 3.78836 8.21351 3.61003 8.3564 3.38185C8.49929 3.15368 8.5698 2.88604 8.55842 2.61473V2.49348C8.55842 2.05188 8.73392 1.62826 9.04624 1.31594C9.35855 1.00363 9.78217 0.828125 10.2238 0.828125C10.6654 0.828125 11.089 1.00363 11.4014 1.31594C11.7137 1.62826 11.8892 2.05188 11.8892 2.49348V2.56844C11.9006 2.83974 11.9711 3.10239 12.114 3.33057C12.2569 3.55874 12.4655 3.74207 12.7123 3.84809C12.9634 3.95899 13.242 3.9921 13.5123 3.94298C13.7826 3.89385 14.0316 3.76477 14.2277 3.57331L14.2777 3.52335C14.4319 3.36912 14.6153 3.2466 14.8174 3.16286C15.0194 3.07913 15.2362 3.03573 15.4549 3.03573C15.6737 3.03573 15.8904 3.07913 16.0925 3.16286C16.2945 3.2466 16.478 3.36912 16.6322 3.52335C16.7864 3.67758 16.909 3.86102 16.9927 4.06307C17.0764 4.2651 17.1198 4.4818 17.1198 4.7006C17.1198 4.91939 17.0764 5.1361 16.9927 5.33813C16.909 5.54016 16.7864 5.72362 16.6322 5.87785L16.5822 5.92781C16.3908 6.12396 16.2617 6.37298 16.2126 6.64328C16.1634 6.91358 16.1966 7.19216 16.3074 7.44328V7.52656C16.4134 7.77335 16.5918 7.98201 16.8199 8.1249C17.0481 8.26779 17.3157 8.3383 17.587 8.32693H17.7083C18.1499 8.32693 18.5735 8.50244 18.8859 8.81475C19.1982 9.12706 19.3737 9.55069 19.3737 9.99225C19.3737 10.4339 19.1982 10.8576 18.8859 11.1698C18.5735 11.4822 18.1499 11.6576 17.7083 11.6576H17.6334C17.3621 11.669 17.0994 11.7396 16.8713 11.8825C16.6431 12.0254 16.4597 12.234 16.3537 12.4808V12.488H16.1558Z" stroke="white" stroke-width="1.6687" stroke-linecap="round" stroke-linejoin="round"/>
</g>
<defs>
<clipPath id="clip0_409_110">
<rect width="19.9844" height="19.9844" fill="white"/>
</clipPath>
</defs>
</svg>
