<svg width="46" height="46" viewBox="0 0 46 46" fill="none" xmlns="http://www.w3.org/2000/svg">
<path d="M42.1667 32.4299V38.1799C42.1688 38.7137 42.0595 39.242 41.8457 39.7311C41.6318 40.2202 41.3182 40.6592 40.9248 41.0201C40.5315 41.381 40.0671 41.6557 39.5614 41.8267C39.0558 41.9977 38.52 42.0612 37.9883 42.0132C32.0904 41.3723 26.4251 39.357 21.4475 36.129C16.8165 33.1863 12.8902 29.26 9.94751 24.629C6.70831 19.6288 4.69248 13.9359 4.06335 8.01153C4.01545 7.48151 4.07844 6.94732 4.24831 6.44297C4.41817 5.93863 4.69119 5.47518 5.04998 5.08213C5.40877 4.68909 5.84547 4.37505 6.33228 4.16003C6.81909 3.945 7.34533 3.83369 7.87751 3.83319H13.6275C14.5577 3.82404 15.4594 4.15343 16.1647 4.75996C16.87 5.3665 17.3307 6.2088 17.4608 7.12986C17.7035 8.96999 18.1536 10.7768 18.8025 12.5157C19.0604 13.2017 19.1162 13.9473 18.9633 14.664C18.8105 15.3808 18.4553 16.0387 17.94 16.5599L15.5058 18.994C18.2343 23.7925 22.2074 27.7655 27.0058 30.494L29.44 28.0599C29.9611 27.5445 30.6191 27.1894 31.3358 27.0365C32.0526 26.8837 32.7982 26.9395 33.4842 27.1974C35.2231 27.8462 37.0299 28.2963 38.87 28.539C39.8011 28.6704 40.6514 29.1393 41.2592 29.8567C41.867 30.5741 42.19 31.4899 42.1667 32.4299Z" stroke="#2C3E50" stroke-width="1.66626" stroke-linecap="round" stroke-linejoin="round"/>
</svg>
