<svg width="48" height="48" viewBox="0 0 48 48" fill="none" xmlns="http://www.w3.org/2000/svg">
<path d="M0 14C0 6.26803 6.26801 0 14 0H33.9959C41.7279 0 47.9959 6.26801 47.9959 14V33.9959C47.9959 41.7279 41.7279 47.9959 33.9959 47.9959H14C6.26803 47.9959 0 41.7279 0 33.9959V14Z" fill="#2B7FFF"/>
<path d="M23.9977 35.6634C30.4405 35.6634 35.6634 30.4405 35.6634 23.9977C35.6634 17.5549 30.4405 12.332 23.9977 12.332C17.5549 12.332 12.332 17.5549 12.332 23.9977C12.332 30.4405 17.5549 35.6634 23.9977 35.6634Z" stroke="white" stroke-width="2.33313" stroke-linecap="round" stroke-linejoin="round"/>
<path d="M23.998 19.3315V23.9978" stroke="white" stroke-width="2.33313" stroke-linecap="round" stroke-linejoin="round"/>
<path d="M23.998 28.6641H24.0097" stroke="white" stroke-width="2.33313" stroke-linecap="round" stroke-linejoin="round"/>
</svg>
