<svg width="16" height="16" viewBox="0 0 16 16" fill="none" xmlns="http://www.w3.org/2000/svg">
<g clip-path="url(#clip0_245_1559)">
<path d="M10.6618 13.9943V12.6616C10.6618 11.9547 10.3809 11.2767 9.88106 10.7768C9.38118 10.2769 8.7032 9.99609 7.99627 9.99609H3.99802C3.29108 9.99609 2.6131 10.2769 2.11323 10.7768C1.61335 11.2767 1.33252 11.9547 1.33252 12.6616V13.9943" stroke="#67798D" stroke-width="1.33275" stroke-linecap="round" stroke-linejoin="round"/>
<path d="M5.99753 7.331C7.46964 7.331 8.66303 6.13761 8.66303 4.6655C8.66303 3.19338 7.46964 2 5.99753 2C4.52542 2 3.33203 3.19338 3.33203 4.6655C3.33203 6.13761 4.52542 7.331 5.99753 7.331Z" stroke="#67798D" stroke-width="1.33275" stroke-linecap="round" stroke-linejoin="round"/>
<path d="M14.6603 13.9937V12.6609C14.6598 12.0703 14.4632 11.4966 14.1014 11.0298C13.7396 10.5631 13.233 10.2297 12.6611 10.082" stroke="#67798D" stroke-width="1.33275" stroke-linecap="round" stroke-linejoin="round"/>
<path d="M10.6621 2.08594C11.2355 2.23274 11.7437 2.56619 12.1066 3.03373C12.4695 3.50126 12.6665 4.07629 12.6665 4.66814C12.6665 5.25999 12.4695 5.83501 12.1066 6.30255C11.7437 6.77008 11.2355 7.10354 10.6621 7.25034" stroke="#67798D" stroke-width="1.33275" stroke-linecap="round" stroke-linejoin="round"/>
</g>
<defs>
<clipPath id="clip0_245_1559">
<rect width="15.993" height="15.993" fill="white"/>
</clipPath>
</defs>
</svg>
