<svg width="40" height="40" viewBox="0 0 40 40" fill="none" xmlns="http://www.w3.org/2000/svg">
<path d="M0 14C0 6.26801 6.26801 0 14 0H25.9966C33.7286 0 39.9966 6.26801 39.9966 14V25.9966C39.9966 33.7286 33.7286 39.9966 25.9966 39.9966H14C6.26801 39.9966 0 33.7286 0 25.9966V14Z" fill="#DBEAFE"/>
<path d="M16.665 11.6655V14.9986" stroke="#155DFC" stroke-width="1.66652" stroke-linecap="round" stroke-linejoin="round"/>
<path d="M23.3311 11.6655V14.9986" stroke="#155DFC" stroke-width="1.66652" stroke-linecap="round" stroke-linejoin="round"/>
<path d="M25.8312 13.332H14.1655C13.2452 13.332 12.499 14.0782 12.499 14.9986V26.6642C12.499 27.5846 13.2452 28.3308 14.1655 28.3308H25.8312C26.7516 28.3308 27.4977 27.5846 27.4977 26.6642V14.9986C27.4977 14.0782 26.7516 13.332 25.8312 13.332Z" stroke="#155DFC" stroke-width="1.66652" stroke-linecap="round" stroke-linejoin="round"/>
<path d="M12.499 18.3315H27.4977" stroke="#155DFC" stroke-width="1.66652" stroke-linecap="round" stroke-linejoin="round"/>
</svg>
