<svg width="16" height="16" viewBox="0 0 16 16" fill="none" xmlns="http://www.w3.org/2000/svg">
<path d="M9.99359 13.9923V8.66234C9.99359 8.48564 9.9234 8.31618 9.79845 8.19123C9.67351 8.06629 9.50404 7.99609 9.32734 7.99609H6.66234C6.48564 7.99609 6.31618 8.06629 6.19123 8.19123C6.06629 8.31618 5.99609 8.48564 5.99609 8.66234V13.9923" stroke="#67798D" stroke-width="1.66667" stroke-linecap="round" stroke-linejoin="round"/>
<path d="M1.99854 6.66168C1.99849 6.46785 2.04073 6.27634 2.12232 6.10051C2.2039 5.92469 2.32286 5.76877 2.47091 5.64365L7.13466 1.64682C7.37516 1.44355 7.67989 1.33203 7.99479 1.33203C8.30968 1.33203 8.61441 1.44355 8.85491 1.64682L13.5187 5.64365C13.6667 5.76877 13.7857 5.92469 13.8673 6.10051C13.9488 6.27634 13.9911 6.46785 13.991 6.66168V12.6579C13.991 13.0113 13.8506 13.3503 13.6008 13.6002C13.3509 13.85 13.0119 13.9904 12.6585 13.9904H3.33104C2.97763 13.9904 2.63871 13.85 2.38882 13.6002C2.13892 13.3503 1.99854 13.0113 1.99854 12.6579V6.66168Z" stroke="#67798D" stroke-width="1.66667" stroke-linecap="round" stroke-linejoin="round"/>
</svg>
