<svg width="48" height="48" viewBox="0 0 48 48" fill="none" xmlns="http://www.w3.org/2000/svg">
<path d="M0 14C0 6.26803 6.26801 0 14 0H33.9959C41.7279 0 47.9959 6.26801 47.9959 14V33.9959C47.9959 41.7279 41.7279 47.9959 33.9959 47.9959H14C6.26803 47.9959 0 41.7279 0 33.9959V14Z" fill="#DBEAFE"/>
<path d="M27.4758 24.8877L28.9908 33.4137C29.0077 33.5141 28.9937 33.6173 28.9504 33.7094C28.9071 33.8016 28.8368 33.8784 28.7487 33.9295C28.6606 33.9806 28.5591 34.0036 28.4576 33.9954C28.3561 33.9872 28.2595 33.9482 28.1808 33.8837L24.6008 31.1967C24.4279 31.0676 24.218 30.9978 24.0023 30.9978C23.7865 30.9978 23.5766 31.0676 23.4038 31.1967L19.8178 33.8827C19.7391 33.9471 19.6426 33.986 19.5413 33.9942C19.4399 34.0024 19.3384 33.9795 19.2504 33.9286C19.1624 33.8776 19.0921 33.801 19.0487 33.709C19.0053 33.617 18.9911 33.514 19.0078 33.4137L20.5218 24.8877" stroke="#2C3E50" stroke-width="1.99983" stroke-linecap="round" stroke-linejoin="round"/>
<path d="M23.9975 25.998C27.311 25.998 29.997 23.3119 29.997 19.9985C29.997 16.6851 27.311 13.999 23.9975 13.999C20.6841 13.999 17.998 16.6851 17.998 19.9985C17.998 23.3119 20.6841 25.998 23.9975 25.998Z" stroke="#2C3E50" stroke-width="1.99983" stroke-linecap="round" stroke-linejoin="round"/>
</svg>
