<svg width="36" height="36" viewBox="0 0 36 36" fill="none" xmlns="http://www.w3.org/2000/svg">
<path d="M0 10C0 4.47715 4.47715 0 10 0H26C31.5228 0 36 4.47715 36 10V26C36 31.5228 31.5228 36 26 36H10C4.47715 36 0 31.5228 0 26V10Z" fill="#2C3E50"/>
<path d="M15 18.75L17.25 21L21 15.75M27 18C27 19.1819 26.7672 20.3522 26.3149 21.4442C25.8626 22.5361 25.1997 23.5282 24.364 24.364C23.5282 25.1997 22.5361 25.8626 21.4442 26.3149C20.3522 26.7672 19.1819 27 18 27C16.8181 27 15.6478 26.7672 14.5558 26.3149C13.4639 25.8626 12.4718 25.1997 11.636 24.364C10.8003 23.5282 10.1374 22.5361 9.68508 21.4442C9.23279 20.3522 9 19.1819 9 18C9 15.6131 9.94821 13.3239 11.636 11.636C13.3239 9.94821 15.6131 9 18 9C20.3869 9 22.6761 9.94821 24.364 11.636C26.0518 13.3239 27 15.6131 27 18Z" stroke="white" stroke-width="2" stroke-linecap="round" stroke-linejoin="round"/>
</svg>
