<svg width="20" height="20" viewBox="0 0 20 20" fill="none" xmlns="http://www.w3.org/2000/svg">
<path d="M15.8291 2.5H4.16528C3.24503 2.5 2.49902 3.24601 2.49902 4.16626V15.8301C2.49902 16.7503 3.24503 17.4963 4.16528 17.4963H15.8291C16.7493 17.4963 17.4953 16.7503 17.4953 15.8301V4.16626C17.4953 3.24601 16.7493 2.5 15.8291 2.5Z" stroke="#2C3E50" stroke-width="1.66626" stroke-linecap="round" stroke-linejoin="round"/>
<path d="M7.49829 9.16454C8.41854 9.16454 9.16454 8.41854 9.16454 7.49829C9.16454 6.57804 8.41854 5.83203 7.49829 5.83203C6.57804 5.83203 5.83203 6.57804 5.83203 7.49829C5.83203 8.41854 6.57804 9.16454 7.49829 9.16454Z" stroke="#2C3E50" stroke-width="1.66626" stroke-linecap="round" stroke-linejoin="round"/>
<path d="M17.4959 12.4964L14.9249 9.92536C14.6124 9.61298 14.1887 9.4375 13.7469 9.4375C13.305 9.4375 12.8813 9.61298 12.5688 9.92536L4.99902 17.4952" stroke="#2C3E50" stroke-width="1.66626" stroke-linecap="round" stroke-linejoin="round"/>
</svg>
