<svg width="20" height="20" viewBox="0 0 20 20" fill="none" xmlns="http://www.w3.org/2000/svg">
<path d="M12.4964 1.66797H4.99829C4.55637 1.66797 4.13255 1.84352 3.82007 2.156C3.50758 2.46849 3.33203 2.89231 3.33203 3.33423V16.6643C3.33203 17.1062 3.50758 17.53 3.82007 17.8425C4.13255 18.155 4.55637 18.3305 4.99829 18.3305H14.9958C15.4377 18.3305 15.8616 18.155 16.174 17.8425C16.4865 17.53 16.6621 17.1062 16.6621 16.6643V5.83361L12.4964 1.66797Z" stroke="#2C3E50" stroke-width="1.66626" stroke-linecap="round" stroke-linejoin="round"/>
<path d="M11.6641 1.66797V5.00048C11.6641 5.4424 11.8396 5.86622 12.1521 6.1787C12.4646 6.49119 12.8884 6.66674 13.3303 6.66674H16.6628" stroke="#2C3E50" stroke-width="1.66626" stroke-linecap="round" stroke-linejoin="round"/>
<path d="M8.3313 7.5H6.66504" stroke="#2C3E50" stroke-width="1.66626" stroke-linecap="round" stroke-linejoin="round"/>
<path d="M13.3301 10.832H6.66504" stroke="#2C3E50" stroke-width="1.66626" stroke-linecap="round" stroke-linejoin="round"/>
<path d="M13.3301 14.1641H6.66504" stroke="#2C3E50" stroke-width="1.66626" stroke-linecap="round" stroke-linejoin="round"/>
</svg>
