<svg width="20" height="20" viewBox="0 0 20 20" fill="none" xmlns="http://www.w3.org/2000/svg">
<path d="M16.6663 8.33464C16.6663 12.4955 12.0505 16.8288 10.5005 18.1671C10.3561 18.2757 10.1803 18.3344 9.99967 18.3344C9.81901 18.3344 9.64324 18.2757 9.49884 18.1671C7.94884 16.8288 3.33301 12.4955 3.33301 8.33464C3.33301 6.56653 4.03539 4.87083 5.28563 3.62059C6.53587 2.37035 8.23156 1.66797 9.99967 1.66797C11.7678 1.66797 13.4635 2.37035 14.7137 3.62059C15.964 4.87083 16.6663 6.56653 16.6663 8.33464Z" stroke="#2C3E50" stroke-width="1.66667" stroke-linecap="round" stroke-linejoin="round"/>
<path d="M10 10.832C11.3807 10.832 12.5 9.71274 12.5 8.33203C12.5 6.95132 11.3807 5.83203 10 5.83203C8.61929 5.83203 7.5 6.95132 7.5 8.33203C7.5 9.71274 8.61929 10.832 10 10.832Z" stroke="#2C3E50" stroke-width="1.66667" stroke-linecap="round" stroke-linejoin="round"/>
</svg>
