<svg width="16" height="16" viewBox="0 0 16 16" fill="none" xmlns="http://www.w3.org/2000/svg">
<g clip-path="url(#clip0_204_887)">
<path d="M13.3301 6.66405C13.3301 9.9919 9.6383 13.4577 8.3986 14.5281C8.28312 14.615 8.14253 14.6619 7.99804 14.6619C7.85354 14.6619 7.71296 14.615 7.59747 14.5281C6.35777 13.4577 2.66602 9.9919 2.66602 6.66405C2.66602 5.24991 3.22778 3.89369 4.22773 2.89374C5.22768 1.8938 6.5839 1.33203 7.99804 1.33203C9.41218 1.33203 10.7684 1.8938 11.7683 2.89374C12.7683 3.89369 13.3301 5.24991 13.3301 6.66405Z" stroke="#67798D" stroke-width="1.33301" stroke-linecap="round" stroke-linejoin="round"/>
<path d="M7.99755 8.66308C9.10185 8.66308 9.99706 7.76787 9.99706 6.66357C9.99706 5.55927 9.10185 4.66406 7.99755 4.66406C6.89326 4.66406 5.99805 5.55927 5.99805 6.66357C5.99805 7.76787 6.89326 8.66308 7.99755 8.66308Z" stroke="#67798D" stroke-width="1.33301" stroke-linecap="round" stroke-linejoin="round"/>
</g>
<defs>
<clipPath id="clip0_204_887">
<rect width="15.9961" height="15.9961" fill="white"/>
</clipPath>
</defs>
</svg>
