<svg width="16" height="16" viewBox="0 0 16 16" fill="none" xmlns="http://www.w3.org/2000/svg">
<g clip-path="url(#clip0_204_870)">
<path d="M7.99755 2H3.33203C2.97849 2 2.63944 2.14044 2.38945 2.39043C2.13946 2.64042 1.99902 2.97947 1.99902 3.33301V12.664C1.99902 13.0176 2.13946 13.3566 2.38945 13.6066C2.63944 13.8566 2.97849 13.997 3.33203 13.997H12.6631C13.0166 13.997 13.3557 13.8566 13.6056 13.6066C13.8556 13.3566 13.9961 13.0176 13.9961 12.664V7.99852" stroke="white" stroke-width="1.33301" stroke-linecap="round" stroke-linejoin="round"/>
<path d="M12.2467 1.75005C12.5119 1.4849 12.8715 1.33594 13.2465 1.33594C13.6215 1.33594 13.9811 1.4849 14.2462 1.75005C14.5114 2.0152 14.6604 2.37482 14.6604 2.7498C14.6604 3.12478 14.5114 3.48441 14.2462 3.74956L8.23905 9.75741C8.08079 9.91554 7.88528 10.0313 7.67053 10.094L5.75566 10.6539C5.69831 10.6706 5.63752 10.6716 5.57965 10.6568C5.52177 10.6419 5.46895 10.6118 5.42671 10.5696C5.38447 10.5273 5.35435 10.4745 5.33953 10.4166C5.3247 10.3588 5.3257 10.298 5.34243 10.2406L5.90229 8.32576C5.9653 8.11118 6.08127 7.9159 6.23954 7.7579L12.2467 1.75005Z" stroke="white" stroke-width="1.33301" stroke-linecap="round" stroke-linejoin="round"/>
</g>
<defs>
<clipPath id="clip0_204_870">
<rect width="15.9961" height="15.9961" fill="white"/>
</clipPath>
</defs>
</svg>
