<svg width="20" height="20" viewBox="0 0 20 20" fill="none" xmlns="http://www.w3.org/2000/svg">
<path d="M16.6621 8.33299C16.6621 12.4928 12.0474 16.8251 10.4978 18.1631C10.3534 18.2716 10.1777 18.3303 9.99706 18.3303C9.81644 18.3303 9.64071 18.2716 9.49635 18.1631C7.94673 16.8251 3.33203 12.4928 3.33203 8.33299C3.33203 6.56532 4.03424 4.87004 5.28417 3.62011C6.53411 2.37017 8.22938 1.66797 9.99706 1.66797C11.7647 1.66797 13.46 2.37017 14.7099 3.62011C15.9599 4.87004 16.6621 6.56532 16.6621 8.33299Z" stroke="#2C3E50" stroke-width="1.66626" stroke-linecap="round" stroke-linejoin="round"/>
<path d="M9.99743 10.8308C11.3778 10.8308 12.4968 9.71179 12.4968 8.33142C12.4968 6.95104 11.3778 5.83203 9.99743 5.83203C8.61706 5.83203 7.49805 6.95104 7.49805 8.33142C7.49805 9.71179 8.61706 10.8308 9.99743 10.8308Z" stroke="#2C3E50" stroke-width="1.66626" stroke-linecap="round" stroke-linejoin="round"/>
</svg>
