<svg width="20" height="20" viewBox="0 0 20 20" fill="none" xmlns="http://www.w3.org/2000/svg">
<path d="M5.00033 7.4987H3.75033C3.19779 7.4987 2.66789 7.2792 2.27719 6.8885C1.88649 6.4978 1.66699 5.9679 1.66699 5.41536C1.66699 4.86283 1.88649 4.33293 2.27719 3.94223C2.66789 3.55152 3.19779 3.33203 3.75033 3.33203H5.00033" stroke="#2C3E50" stroke-width="1.66667" stroke-linecap="round" stroke-linejoin="round"/>
<path d="M15 7.4987H16.25C16.8025 7.4987 17.3324 7.2792 17.7231 6.8885C18.1138 6.4978 18.3333 5.9679 18.3333 5.41536C18.3333 4.86283 18.1138 4.33293 17.7231 3.94223C17.3324 3.55152 16.8025 3.33203 16.25 3.33203H15" stroke="#2C3E50" stroke-width="1.66667" stroke-linecap="round" stroke-linejoin="round"/>
<path d="M3.33301 18.332H16.6663" stroke="#2C3E50" stroke-width="1.66667" stroke-linecap="round" stroke-linejoin="round"/>
<path d="M8.33301 12.2148V14.1648C8.33301 14.6232 7.94134 14.9815 7.52467 15.1732C6.54134 15.6232 5.83301 16.8648 5.83301 18.3315" stroke="#2C3E50" stroke-width="1.66667" stroke-linecap="round" stroke-linejoin="round"/>
<path d="M11.667 12.2148V14.1648C11.667 14.6232 12.0587 14.9815 12.4753 15.1732C13.4587 15.6232 14.167 16.8648 14.167 18.3315" stroke="#2C3E50" stroke-width="1.66667" stroke-linecap="round" stroke-linejoin="round"/>
<path d="M15 1.66797H5V7.5013C5 8.82738 5.52678 10.0992 6.46447 11.0368C7.40215 11.9745 8.67392 12.5013 10 12.5013C11.3261 12.5013 12.5979 11.9745 13.5355 11.0368C14.4732 10.0992 15 8.82738 15 7.5013V1.66797Z" stroke="#2C3E50" stroke-width="1.66667" stroke-linecap="round" stroke-linejoin="round"/>
</svg>
