<svg width="20" height="20" viewBox="0 0 20 20" fill="none" xmlns="http://www.w3.org/2000/svg">
<g clip-path="url(#clip0_97_1507)">
<path d="M9.60336 1.91174C9.63988 1.83796 9.69629 1.77586 9.76622 1.73244C9.83616 1.68902 9.91684 1.66602 9.99916 1.66602C10.0815 1.66602 10.1622 1.68902 10.2321 1.73244C10.302 1.77586 10.3584 1.83796 10.395 1.91174L12.3198 5.81057C12.4466 6.06719 12.6338 6.28921 12.8653 6.45756C13.0968 6.62592 13.3656 6.73559 13.6488 6.77716L17.9535 7.4071C18.035 7.41892 18.1117 7.45333 18.1747 7.50643C18.2377 7.55953 18.2846 7.62921 18.3101 7.70758C18.3356 7.78596 18.3387 7.8699 18.3189 7.94992C18.2992 8.02994 18.2575 8.10284 18.1985 8.16037L15.0854 11.1918C14.8801 11.3918 14.7265 11.6388 14.6378 11.9114C14.5491 12.184 14.528 12.4741 14.5763 12.7566L15.3112 17.0396C15.3256 17.1211 15.3168 17.2051 15.2858 17.2818C15.2548 17.3586 15.2028 17.4251 15.1358 17.4737C15.0689 17.5224 14.9896 17.5512 14.907 17.557C14.8244 17.5627 14.7418 17.5451 14.6688 17.5062L10.8208 15.4831C10.5672 15.3499 10.2851 15.2804 9.99874 15.2804C9.71237 15.2804 9.43028 15.3499 9.17673 15.4831L5.32956 17.5062C5.25651 17.5449 5.17407 17.5623 5.09162 17.5564C5.00917 17.5506 4.93003 17.5217 4.86318 17.4731C4.79633 17.4245 4.74447 17.3581 4.71349 17.2814C4.68251 17.2048 4.67366 17.121 4.68795 17.0396L5.42205 12.7575C5.47054 12.4748 5.44954 12.1845 5.36084 11.9118C5.27214 11.639 5.11842 11.3919 4.91293 11.1918L1.79986 8.16121C1.74036 8.10374 1.6982 8.03071 1.67817 7.95045C1.65815 7.87019 1.66107 7.78592 1.6866 7.70724C1.71214 7.62855 1.75925 7.55863 1.82259 7.50541C1.88593 7.4522 1.96293 7.41785 2.04484 7.40627L6.34864 6.77716C6.63216 6.73591 6.90142 6.62638 7.13323 6.45801C7.36504 6.28963 7.55246 6.06744 7.67936 5.81057L9.60336 1.91174Z" fill="#F0B100" stroke="#F0B100" stroke-width="1.66652" stroke-linecap="round" stroke-linejoin="round"/>
</g>
<defs>
<clipPath id="clip0_97_1507">
<rect width="19.9983" height="19.9983" fill="white"/>
</clipPath>
</defs>
</svg>
