<svg width="46" height="46" viewBox="0 0 46 46" fill="none" xmlns="http://www.w3.org/2000/svg">
<path d="M22.0896 4.3992C22.1736 4.2295 22.3033 4.08665 22.4642 3.98678C22.6251 3.88691 22.8107 3.83398 23 3.83398C23.1894 3.83398 23.3749 3.88691 23.5358 3.98678C23.6967 4.08665 23.8264 4.2295 23.9104 4.3992L28.3379 13.3673C28.6296 13.9575 29.0601 14.4682 29.5926 14.8555C30.1251 15.2427 30.7436 15.495 31.395 15.5906L41.2965 17.0396C41.4841 17.0668 41.6604 17.1459 41.8054 17.2681C41.9503 17.3902 42.0582 17.5505 42.1169 17.7308C42.1755 17.9111 42.1825 18.1041 42.1371 18.2882C42.0917 18.4723 41.9957 18.6399 41.86 18.7723L34.6993 25.7451C34.2271 26.2053 33.8738 26.7734 33.6698 27.4004C33.4658 28.0274 33.4172 28.6946 33.5283 29.3446L35.2188 39.1963C35.2519 39.3838 35.2316 39.5769 35.1603 39.7534C35.089 39.93 34.9695 40.0829 34.8154 40.1949C34.6613 40.3068 34.4789 40.3731 34.2889 40.3863C34.099 40.3995 33.9091 40.3591 33.741 40.2696L24.8898 35.6159C24.3066 35.3097 23.6578 35.1497 22.9991 35.1497C22.3403 35.1497 21.6915 35.3097 21.1083 35.6159L12.259 40.2696C12.091 40.3586 11.9014 40.3986 11.7117 40.3851C11.5221 40.3716 11.34 40.3052 11.1862 40.1934C11.0325 40.0815 10.9132 39.9288 10.8419 39.7525C10.7707 39.5763 10.7503 39.3835 10.7832 39.1963L12.4718 29.3465C12.5833 28.6963 12.535 28.0286 12.331 27.4012C12.1269 26.7738 11.7733 26.2054 11.3007 25.7451L4.14001 18.7742C4.00315 18.642 3.90616 18.474 3.86011 18.2894C3.81405 18.1048 3.82077 17.911 3.8795 17.73C3.93823 17.549 4.04661 17.3881 4.19229 17.2657C4.33798 17.1434 4.51511 17.0643 4.70351 17.0377L14.6031 15.5906C15.2553 15.4957 15.8746 15.2438 16.4078 14.8565C16.941 14.4692 17.3721 13.9581 17.664 13.3673L22.0896 4.3992Z" stroke="#F0B100" stroke-width="1.66626" stroke-linecap="round" stroke-linejoin="round"/>
</svg>
