<svg width="20" height="20" viewBox="0 0 20 20" fill="none" xmlns="http://www.w3.org/2000/svg">
<path d="M9.87109 12.4883C11.2507 12.4883 12.3691 11.3699 12.3691 9.99023C12.3691 8.6106 11.2507 7.49219 9.87109 7.49219C8.49146 7.49219 7.37305 8.6106 7.37305 9.99023C7.37305 11.3699 8.49146 12.4883 9.87109 12.4883Z" stroke="#364153" stroke-width="1.6687" stroke-linecap="round" stroke-linejoin="round"/>
<path d="M16.033 12.488C15.9221 12.7391 15.889 13.0177 15.9381 13.288C15.9873 13.5583 16.1164 13.8073 16.3078 14.0035L16.3578 14.0535C16.5121 14.2077 16.6346 14.3911 16.7183 14.5932C16.802 14.7952 16.8454 15.0119 16.8454 15.2307C16.8454 15.4495 16.802 15.6662 16.7183 15.8683C16.6346 16.0703 16.5121 16.2538 16.3578 16.4079C16.2036 16.5622 16.0201 16.6847 15.8181 16.7685C15.6161 16.8522 15.3993 16.8956 15.1805 16.8956C14.9618 16.8956 14.745 16.8522 14.543 16.7685C14.341 16.6847 14.1575 16.5622 14.0033 16.4079L13.9534 16.358C13.7571 16.1665 13.5081 16.0374 13.2378 15.9883C12.9675 15.9392 12.689 15.9723 12.4378 16.0832C12.191 16.1892 11.9824 16.3676 11.8395 16.5957C11.6966 16.8239 11.6261 17.0916 11.6375 17.3629V17.4841C11.6375 17.9257 11.4619 18.3493 11.1496 18.6617C10.8373 18.974 10.4136 19.1495 9.97208 19.1495C9.53047 19.1495 9.10685 18.974 8.79454 18.6617C8.48222 18.3493 8.30672 17.9257 8.30672 17.4841V17.4092C8.29002 17.1302 8.20789 16.8595 8.067 16.6192C7.9261 16.3789 7.73058 16.176 7.49568 16.0269C7.24456 15.916 6.96598 15.8828 6.69568 15.932C6.42538 15.9812 6.17635 16.1103 5.98021 16.3017L5.93025 16.3517C5.77602 16.5059 5.59257 16.6284 5.39054 16.7121C5.1885 16.7958 4.97179 16.8393 4.753 16.8393C4.53421 16.8393 4.3175 16.7958 4.11546 16.7121C3.91343 16.6284 3.72998 16.5059 3.57576 16.3517C3.42152 16.1974 3.299 16.0139 3.21527 15.8119C3.13152 15.6099 3.08814 15.3932 3.08814 15.1744C3.08814 14.9556 3.13152 14.7388 3.21527 14.5368C3.299 14.3348 3.42152 14.1513 3.57576 13.9971L3.62571 13.9472C3.81717 13.751 3.94626 13.502 3.99538 13.2317C4.0445 12.9614 4.01139 12.6828 3.90049 12.4317C3.79447 12.1849 3.61613 11.9763 3.38795 11.8334C3.15978 11.6905 2.89214 11.62 2.62083 11.6314H2.4996C2.05798 11.6314 1.63436 11.4558 1.32205 11.1436C1.00973 10.8312 0.834229 10.4076 0.834229 9.96598C0.834229 9.52437 1.00973 9.10075 1.32205 8.78843C1.63436 8.47612 2.05798 8.30061 2.4996 8.30061H2.57454C2.85349 8.28392 3.12421 8.20179 3.36452 8.06089C3.60483 7.91999 3.80772 7.72447 3.95679 7.48958C4.06768 7.23845 4.1008 6.95987 4.05167 6.68957C4.00254 6.41927 3.87346 6.17025 3.682 5.9741L3.63204 5.92414C3.47781 5.76991 3.35529 5.58647 3.27155 5.38443C3.18782 5.18239 3.14442 4.96569 3.14442 4.74689C3.14442 4.5281 3.18782 4.31139 3.27155 4.10936C3.35529 3.90733 3.47781 3.72387 3.63204 3.56965C3.78627 3.41541 3.96972 3.2929 4.17175 3.20916C4.37379 3.12542 4.59049 3.08203 4.80929 3.08203C5.02808 3.08203 5.24479 3.12542 5.44682 3.20916C5.64886 3.2929 5.83231 3.41541 5.98653 3.56965L6.03649 3.61961C6.23264 3.81106 6.48166 3.94015 6.75196 3.98927C7.02226 4.0384 7.30084 4.00528 7.55198 3.89439H7.63524C7.88204 3.78836 8.09071 3.61003 8.23359 3.38185C8.37648 3.15368 8.447 2.88604 8.43562 2.61473V2.49348C8.43562 2.05188 8.61112 1.62826 8.92344 1.31594C9.23575 1.00363 9.65937 0.828125 10.101 0.828125C10.5426 0.828125 10.9662 1.00363 11.2786 1.31594C11.5909 1.62826 11.7664 2.05188 11.7664 2.49348V2.56844C11.7778 2.83974 11.8483 3.10239 11.9912 3.33057C12.1341 3.55874 12.3427 3.74207 12.5895 3.84809C12.8406 3.95899 13.1192 3.9921 13.3895 3.94298C13.6598 3.89385 13.9088 3.76477 14.1049 3.57331L14.1549 3.52335C14.3091 3.36912 14.4925 3.2466 14.6946 3.16286C14.8966 3.07913 15.1134 3.03573 15.3321 3.03573C15.5509 3.03573 15.7676 3.07913 15.9697 3.16286C16.1717 3.2466 16.3552 3.36912 16.5094 3.52335C16.6636 3.67758 16.7861 3.86102 16.8699 4.06307C16.9536 4.2651 16.997 4.4818 16.997 4.7006C16.997 4.91939 16.9536 5.1361 16.8699 5.33813C16.7861 5.54016 16.6636 5.72362 16.5094 5.87785L16.4594 5.92781C16.268 6.12396 16.1389 6.37298 16.0898 6.64328C16.0406 6.91358 16.0738 7.19216 16.1846 7.44328V7.52656C16.2906 7.77335 16.469 7.98201 16.6971 8.1249C16.9253 8.26779 17.1929 8.3383 17.4642 8.32693H17.5855C18.0271 8.32693 18.4507 8.50244 18.7631 8.81475C19.0754 9.12706 19.2509 9.55069 19.2509 9.99225C19.2509 10.4339 19.0754 10.8576 18.7631 11.1698C18.4507 11.4822 18.0271 11.6576 17.5855 11.6576H17.5106C17.2393 11.669 16.9766 11.7396 16.7485 11.8825C16.5203 12.0254 16.3369 12.234 16.2309 12.4808V12.488H16.033Z" stroke="#364153" stroke-width="1.6687" stroke-linecap="round" stroke-linejoin="round"/>
</svg>
