<svg width="16" height="16" viewBox="0 0 16 16" fill="none" xmlns="http://www.w3.org/2000/svg">
<g clip-path="url(#clip0_161_491)">
<path d="M7.99852 2H3.33301C2.97947 2 2.64042 2.14044 2.39043 2.39043C2.14044 2.64042 2 2.97947 2 3.33301V12.664C2 13.0176 2.14044 13.3566 2.39043 13.6066C2.64042 13.8566 2.97947 13.997 3.33301 13.997H12.664C13.0176 13.997 13.3566 13.8566 13.6066 13.6066C13.8566 13.3566 13.997 13.0176 13.997 12.664V7.99852" stroke="white" stroke-width="1.33301" stroke-linecap="round" stroke-linejoin="round"/>
<path d="M12.2458 1.75005C12.5109 1.4849 12.8705 1.33594 13.2455 1.33594C13.6205 1.33594 13.9801 1.4849 14.2453 1.75005C14.5104 2.0152 14.6594 2.37482 14.6594 2.7498C14.6594 3.12478 14.5104 3.48441 14.2453 3.74956L8.23808 9.75741C8.07981 9.91554 7.8843 10.0313 7.66955 10.094L5.75469 10.6539C5.69734 10.6706 5.63654 10.6716 5.57867 10.6568C5.5208 10.6419 5.46798 10.6118 5.42573 10.5696C5.38349 10.5273 5.35338 10.4745 5.33855 10.4166C5.32372 10.3588 5.32473 10.298 5.34145 10.2406L5.90132 8.32576C5.96432 8.11118 6.0803 7.9159 6.23857 7.7579L12.2458 1.75005Z" stroke="white" stroke-width="1.33301" stroke-linecap="round" stroke-linejoin="round"/>
</g>
<defs>
<clipPath id="clip0_161_491">
<rect width="15.9961" height="15.9961" fill="white"/>
</clipPath>
</defs>
</svg>
