<svg width="20" height="20" viewBox="0 0 20 20" fill="none" xmlns="http://www.w3.org/2000/svg">
<g clip-path="url(#clip0_188_10952)">
<path d="M13.3301 17.4988V15.8325C13.3301 14.9487 12.979 14.101 12.354 13.4761C11.729 12.8511 10.8814 12.5 9.99754 12.5H4.99877C4.11494 12.5 3.2673 12.8511 2.64233 13.4761C2.01736 14.101 1.66626 14.9487 1.66626 15.8325V17.4988" stroke="#364153" stroke-width="1.66626" stroke-linecap="round" stroke-linejoin="round"/>
<path d="M7.49816 9.16503C9.33866 9.16503 10.8307 7.67301 10.8307 5.83251C10.8307 3.99202 9.33866 2.5 7.49816 2.5C5.65767 2.5 4.16565 3.99202 4.16565 5.83251C4.16565 7.67301 5.65767 9.16503 7.49816 9.16503Z" stroke="#364153" stroke-width="1.66626" stroke-linecap="round" stroke-linejoin="round"/>
<path d="M18.3288 17.492V15.8258C18.3283 15.0874 18.0825 14.3701 17.6301 13.7865C17.1778 13.203 16.5444 12.7862 15.8294 12.6016" stroke="#364153" stroke-width="1.66626" stroke-linecap="round" stroke-linejoin="round"/>
<path d="M13.33 2.60938C14.0469 2.79291 14.6822 3.20981 15.136 3.79434C15.5897 4.37887 15.836 5.09779 15.836 5.83775C15.836 6.57771 15.5897 7.29662 15.136 7.88115C14.6822 8.46568 14.0469 8.88258 13.33 9.06612" stroke="#364153" stroke-width="1.66626" stroke-linecap="round" stroke-linejoin="round"/>
</g>
<defs>
<clipPath id="clip0_188_10952">
<rect width="19.9951" height="19.9951" fill="white"/>
</clipPath>
</defs>
</svg>
